<svg width="32" height="33" viewBox="0 0 32 33" fill="none" xmlns="http://www.w3.org/2000/svg">
<path d="M24.0508 23.3418L24.0517 23.3412C24.4854 23.0565 25.0594 23.3592 25.0594 23.8909V26.0187C25.0594 26.8159 24.7431 27.7 24.1869 28.4702C23.6309 29.2403 22.8927 29.8168 22.1466 30.068C22.1461 30.0682 22.1456 30.0684 22.1451 30.0685L16.8867 31.8158L16.8867 31.8158L16.8807 31.8179C16.5539 31.9287 16.0639 31.9999 15.5299 31.9999C14.9949 31.9999 14.5118 31.9285 14.1967 31.8196L14.1967 31.8196L14.1855 31.8158L8.92468 30.0677C8.92459 30.0677 8.9245 30.0677 8.92441 30.0677C8.17077 29.8164 7.43331 29.2402 6.87993 28.4715C6.3266 27.7028 6.0127 26.8183 6.0127 26.0187V23.8744C6.0127 23.3578 6.58976 23.0549 7.00694 23.3267L7.00754 23.3271L10.3996 25.5336C11.8943 26.5343 13.7437 27.0022 15.5526 27.0022C17.3619 27.0022 19.2119 26.534 20.7069 25.5327L24.0508 23.3418Z" stroke="#305FE6" stroke-width="2"/>
<path d="M18.2665 1.71393L18.2672 1.71443L28.1458 8.19567C28.146 8.19583 28.1463 8.19598 28.1465 8.19614C29.8159 9.29625 30.3768 11.2896 29.8355 13.0354L29.7907 13.18V13.3315V21.4467C29.7907 21.5035 29.7676 21.5628 29.7186 21.6117C29.6697 21.6607 29.6104 21.6838 29.5536 21.6838C29.4968 21.6838 29.4375 21.6607 29.3886 21.6117C29.3396 21.5628 29.3165 21.5035 29.3165 21.4467V16.3995V14.546L27.7675 15.5637L25.5083 17.0478L25.5077 17.0482L18.2673 21.7982L18.2665 21.7987C17.5744 22.2537 16.5979 22.5126 15.5664 22.5126C14.535 22.5126 13.5585 22.2537 12.8664 21.7987L12.863 21.7965L5.57256 17.0461L5.57162 17.0455L2.93421 15.3312C2.93397 15.331 2.93372 15.3309 2.93348 15.3307C0.352847 13.6452 0.35894 9.86586 2.93116 8.19992L2.9342 8.19794L12.8637 1.71569L12.8664 1.71392C13.5585 1.25896 14.535 1 15.5664 1C16.5979 1 17.5744 1.25896 18.2665 1.71393Z" stroke="#305FE6" stroke-width="2"/>
</svg>
