<svg width="32" height="33" viewBox="0 0 32 33" fill="none" xmlns="http://www.w3.org/2000/svg">
<path d="M23.5028 22.5055C24.6079 21.7797 26.0594 22.5715 26.0594 23.891V26.0188C26.0594 28.1136 24.4265 30.3568 22.4637 31.0166L17.202 32.765C16.2783 33.0783 14.7773 33.0783 13.8701 32.765L8.60845 31.0166C6.62914 30.3568 5.0127 28.1136 5.0127 26.0188V23.8745C5.0127 22.5715 6.46419 21.7797 7.55282 22.489L10.9506 24.6992C12.2537 25.5734 13.9031 26.0023 15.5526 26.0023C17.202 26.0023 18.8514 25.5734 20.1545 24.6992L23.5028 22.5055Z" fill="#FBBE29"/>
<path d="M13.8701 32.765C14.7773 33.0783 16.2783 33.0783 17.202 32.765C16.206 32.765 14.0795 30.6237 12.2641 28.7348C10.4974 26.8965 8.85749 24.8541 7.62601 22.6217L7.55282 22.489C6.46419 21.7797 5.0127 22.5715 5.0127 23.8745V26.0188C5.0127 28.1136 6.62914 30.3568 8.60845 31.0166L13.8701 32.765Z" fill="#E7B229"/>
<path d="M28.6959 7.36058L18.8158 0.878321C17.0344 -0.292774 14.0984 -0.292774 12.3171 0.878321L2.38755 7.36058C-0.795849 9.42236 -0.795849 14.0903 2.38755 16.1685L5.02663 17.8839L12.3171 22.6343C14.0984 23.8054 17.0344 23.8054 18.8158 22.6343L26.0568 17.8839L28.3165 16.3995V21.4467C28.3165 22.123 28.8773 22.6838 29.5536 22.6838C30.2299 22.6838 30.7907 22.123 30.7907 21.4467V13.3315C31.4504 11.2037 30.7742 8.7296 28.6959 7.36058Z" fill="#305FE6"/>
</svg>
