<svg width="32" height="32" viewBox="0 0 32 32" fill="none" xmlns="http://www.w3.org/2000/svg">
<path fill-rule="evenodd" clip-rule="evenodd" d="M0 6.38901C0 3.86406 1.88401 1.77779 4.25974 1.77779H27.6417C30.0174 1.77779 31.9014 3.86406 31.9014 6.38901V21.7219C31.9014 24.2469 30.0174 26.3331 27.6417 26.3331H23.9976C23.3197 26.3331 22.666 26.6256 22.1818 27.1553L18.9776 30.6415C17.3111 32.4526 14.6031 32.4529 12.9366 30.6419L9.73206 27.1553C9.24788 26.6256 8.59418 26.3331 7.91628 26.3331H4.25974C1.88401 26.3331 0 24.2469 0 21.7219V6.38901ZM4.25974 3.55558C2.85456 3.55558 1.67902 4.79947 1.67902 6.38901V21.7219C1.67902 23.3114 2.85456 24.5553 4.25974 24.5553H7.91628C9.05382 24.5553 10.141 25.0468 10.9378 25.9181L14.1392 29.4013C15.1467 30.4961 16.7672 30.4961 17.7747 29.4013L20.9753 25.919C21.7721 25.0476 22.86 24.5553 23.9976 24.5553H27.6417C29.0469 24.5553 30.2224 23.3114 30.2224 21.7219V6.38901C30.2224 4.79947 29.0469 3.55558 27.6417 3.55558H4.25974Z" fill="#305FE6"/>
<path d="M20.9878 8.88894C20.9878 13.3072 17.605 16.889 13.4322 16.889C9.25933 16.889 5.87658 13.3072 5.87658 8.88894C5.87658 4.47064 9.25933 0.888894 13.4322 0.888894C17.605 0.888894 20.9878 4.47064 20.9878 8.88894Z" fill="white"/>
<path fill-rule="evenodd" clip-rule="evenodd" d="M13.4322 1.77779C9.72298 1.77779 6.71609 4.96156 6.71609 8.88894C6.71609 12.8163 9.72298 16.0001 13.4322 16.0001C17.1414 16.0001 20.1483 12.8163 20.1483 8.88894C20.1483 4.96156 17.1414 1.77779 13.4322 1.77779ZM5.03707 8.88894C5.03707 3.97972 8.79568 0 13.4322 0C18.0687 0 21.8273 3.97972 21.8273 8.88894C21.8273 13.7982 18.0687 17.7779 13.4322 17.7779C8.79568 17.7779 5.03707 13.7982 5.03707 8.88894Z" fill="#305FE6"/>
</svg>
