<svg width="33" height="33" viewBox="0 0 33 33" fill="none" xmlns="http://www.w3.org/2000/svg">
<path d="M0.0150203 12.9717C10.6795 12.9717 21.2988 12.9717 31.9633 12.9717C31.9783 13.0881 31.9933 13.19 31.9933 13.2919C31.9933 17.2942 32.0083 21.3111 31.9933 25.3135C31.9783 27.6712 30.3561 29.5341 27.9529 29.9416C27.6524 29.9853 27.352 29.9998 27.0516 29.9998C19.6766 29.9998 12.3017 29.9998 4.92667 29.9998C2.41827 29.9998 0.495671 28.4571 0.0600814 26.0994C0.0150203 25.8374 0 25.5754 0 25.2989C0 21.2966 0 17.3088 0 13.3064C0 13.2045 0.0150203 13.1027 0.0150203 12.9717Z" fill="#305FE6"/>
<path d="M22.4347 4.62966C22.4347 3.65454 22.4347 2.72309 22.4347 1.77708C22.4347 1.52966 22.4647 1.26769 22.5397 1.03483C22.7796 0.307126 23.5295 -0.0858321 24.3243 0.0305999C25.0441 0.147032 25.614 0.772853 25.629 1.50055C25.644 2.4029 25.629 3.3198 25.629 4.22215C25.629 4.35313 25.629 4.48412 25.629 4.64421C26.1688 4.64421 26.6787 4.64421 27.1886 4.64421C29.618 4.67332 31.5526 6.2306 31.9425 8.55924C32.0625 9.28694 31.9575 10.0437 31.9575 10.8151C21.355 10.8151 10.7225 10.8151 0 10.8151C0.0899789 9.89821 0.0599859 8.9522 0.269937 8.07896C0.749824 6.11417 2.60939 4.73154 4.6789 4.65877C5.26376 4.64421 5.84863 4.65877 6.46348 4.65877C6.46348 3.65454 6.46348 2.70853 6.46348 1.74797C6.46348 1.54421 6.47848 1.34046 6.52347 1.1367C6.71842 0.409004 7.36327 -0.0276161 8.14309 0.00149188C8.87791 0.0305999 9.50776 0.539989 9.61274 1.26769C9.67273 1.66065 9.65773 2.06816 9.65773 2.46112C9.65773 3.17426 9.65773 3.88741 9.65773 4.62966C13.9317 4.62966 18.1607 4.62966 22.4347 4.62966Z" fill="#305FE6"/>
<path fill-rule="evenodd" clip-rule="evenodd" d="M27.4891 32.0919C23.322 34.3534 18.7449 32.0579 16.9931 28.8454C14.8842 24.9812 16.1685 20.453 20.0666 18.1272C20.0666 18.1273 20.0666 18.1274 20.0666 18.1275C24.193 15.8241 28.9428 17.1478 31.1182 21.2055C33.305 25.2854 31.7346 29.9969 27.4891 32.0921C27.4891 32.092 27.4891 32.092 27.4891 32.0919Z" fill="#FBBE29"/>
<path d="M20.0666 18.1274C19.0148 23.7221 21.2619 28.4373 26.264 31.1451C26.72 31.392 27.2571 31.549 27.4895 32.0919C23.3224 34.3538 18.745 32.0582 16.9931 28.8456C14.8842 24.9814 16.1685 20.4532 20.0666 18.1274Z" fill="#E7B229"/>
<path d="M27.5 25.5H24V20.5" stroke="#305FE6" stroke-width="2" stroke-linecap="round" stroke-linejoin="round"/>
</svg>
