<svg width="32" height="32" viewBox="0 0 32 32" fill="none" xmlns="http://www.w3.org/2000/svg">
<path d="M0 4C0 1.79086 1.79086 0 4 0H28C30.2091 0 32 1.79086 32 4V28C32 30.2091 30.2091 32 28 32H4C1.79086 32 0 30.2091 0 28V4Z" fill="#305FE6"/>
<path d="M3.55566 32.0002C3.55566 26.1091 8.3313 21.3335 14.2223 21.3335C20.1134 21.3335 24.889 26.1091 24.889 32.0002H3.55566Z" fill="#FBBE29"/>
<path fill-rule="evenodd" clip-rule="evenodd" d="M17.0659 16.2055C13.4197 18.1844 9.41463 16.1759 7.88178 13.3649C6.0365 9.98375 7.16029 6.02159 10.5711 3.98651C10.5711 3.98654 10.5711 3.98657 10.5711 3.9866C14.1817 1.97108 18.3379 3.12929 20.2413 6.67978C22.1548 10.2497 20.7807 14.3723 17.0659 16.2056C17.0659 16.2056 17.0659 16.2055 17.0659 16.2055Z" fill="#FBBE29"/>
<path d="M10.5711 3.98645C9.65074 8.88176 11.617 13.0075 15.9938 15.3769C16.3928 15.5929 16.8627 15.7303 17.0661 16.2053C13.4199 18.1845 9.41466 16.1759 7.88178 13.3648C6.0365 9.98369 7.16029 6.02153 10.5711 3.98645Z" fill="#E7B229"/>
</svg>
