<svg width="34" height="32" viewBox="0 0 34 32" fill="none" xmlns="http://www.w3.org/2000/svg">
<path d="M30.0479 1.88232H3.83442C1.71503 1.88232 0 3.64534 0 5.82359V22.0583C0 24.2366 1.71503 25.9996 3.83442 25.9996H7.93377C8.95164 25.9996 9.92767 26.4148 10.6458 27.1568L14.2362 30.8462C15.7351 32.3846 18.1612 32.3846 19.6601 30.8462L23.2505 27.1568C23.9686 26.4148 24.9447 25.9996 25.9625 25.9996H30.0479C32.1673 25.9996 33.8824 24.2366 33.8824 22.0583V5.82359C33.8824 3.64534 32.1673 1.88232 30.0479 1.88232Z" fill="#305FE6"/>
<path fill-rule="evenodd" clip-rule="evenodd" d="M23.5498 4.99393C20.9665 0.175375 15.3259 -1.39644 10.4258 1.33909C10.4258 1.33913 10.4258 1.33916 10.4258 1.33919C5.79713 4.10111 4.27214 9.47811 6.77636 14.0666C8.85667 17.8816 14.2923 20.6075 19.2407 17.9215C19.2407 17.9215 19.2407 17.9215 19.2407 17.9215C24.2819 15.4334 26.1466 9.8387 23.5498 4.99393Z" fill="#FBBE29"/>
<path d="M10.426 1.33899C9.17698 7.98254 11.8454 13.5817 17.7853 16.7973C18.3269 17.0904 18.9646 17.2769 19.2406 17.9215C14.2922 20.6075 8.85659 17.8816 6.77628 14.0666C4.272 9.478 5.79712 4.10085 10.426 1.33899Z" fill="#E7B229"/>
</svg>
