<svg width="34" height="34" viewBox="0 0 34 34" fill="none" xmlns="http://www.w3.org/2000/svg">
<path fill-rule="evenodd" clip-rule="evenodd" d="M0 5C0 2.23858 2.23858 0 5 0H29C31.7614 0 34 2.23858 34 5V29C34 31.7614 31.7614 34 29 34H5C2.23858 34 0 31.7614 0 29V5ZM5 2C3.34315 2 2 3.34315 2 5V29C2 30.6569 3.34315 32 5 32H29C30.6569 32 32 30.6569 32 29V5C32 3.34315 30.6569 2 29 2H5Z" fill="#305FE6"/>
<path fill-rule="evenodd" clip-rule="evenodd" d="M3.55551 33.0001C3.55551 26.5568 8.77886 21.3335 15.2222 21.3335C21.6655 21.3335 26.8888 26.5568 26.8888 33.0001H25.8888V34.0001H4.55551V33.0001H3.55551ZM5.60661 32.0001H24.8377C24.3373 27.1312 20.2233 23.3335 15.2222 23.3335C10.2211 23.3335 6.107 27.1312 5.60661 32.0001Z" fill="#305FE6"/>
<path fill-rule="evenodd" clip-rule="evenodd" d="M15 16C17.7614 16 20 13.7614 20 11C20 8.23858 17.7614 6 15 6C12.2386 6 10 8.23858 10 11C10 13.7614 12.2386 16 15 16ZM15 18C18.866 18 22 14.866 22 11C22 7.13401 18.866 4 15 4C11.134 4 8 7.13401 8 11C8 14.866 11.134 18 15 18Z" fill="#305FE6"/>
</svg>
