<svg width="34" height="29" viewBox="0 0 34 29" fill="none" xmlns="http://www.w3.org/2000/svg">
<path d="M27.1362 22.4546H31.6816V25.8637C31.6816 26.4909 31.1726 27 30.5453 27H28.2726C27.6453 27 27.1362 26.4909 27.1362 25.8637V22.4546Z" stroke="#305FE6" stroke-width="2.66667"/>
<path d="M2.13623 22.4546H6.68165V25.8637C6.68165 26.4909 6.17256 27 5.54529 27H3.27258C2.64532 27 2.13623 26.4909 2.13623 25.8637V22.4546Z" stroke="#305FE6" stroke-width="2.66667"/>
<path d="M6.68165 11.0913H27.136C29.6462 11.0913 31.6814 13.1265 31.6814 15.6367V21.3185C31.6814 21.9458 31.1724 22.4549 30.5451 22.4549H3.27258C2.64532 22.4549 2.13623 21.9458 2.13623 21.3185V15.6367C2.13623 13.1265 4.17144 11.0913 6.68165 11.0913Z" stroke="#305FE6" stroke-width="2.66667"/>
<path d="M27.1361 15.6362C27.7634 15.6362 28.2725 16.1453 28.2725 16.7726C28.2725 17.3999 27.7634 17.9089 27.1361 17.9089C26.5088 17.9089 25.9998 17.3999 25.9998 16.7726C25.9998 16.1453 26.5088 15.6362 27.1361 15.6362Z" fill="#305FE6"/>
<path d="M6.68176 15.6362C7.30903 15.6362 7.81812 16.1453 7.81812 16.7726C7.81812 17.3999 7.30903 17.9089 6.68176 17.9089C6.0545 17.9089 5.54541 17.3999 5.54541 16.7726C5.54541 16.1453 6.0545 15.6362 6.68176 15.6362Z" fill="#305FE6"/>
<path d="M8.60574 2H25.2124C25.6863 2 26.1101 2.29432 26.276 2.73749L29.409 11.0908H4.40918L7.54211 2.73749C7.70802 2.29432 8.13188 2 8.60574 2Z" stroke="#305FE6" stroke-width="2.66667"/>
<path d="M1 7.68213H4.40906V9.95484H1V7.68213Z" fill="#305FE6"/>
<path d="M29.4087 7.68213H32.8178V9.95484H29.4087V7.68213Z" fill="#305FE6"/>
<path d="M10.0908 16.7725H23.7271" stroke="#305FE6" stroke-width="2.66667"/>
</svg>
