<svg width="25" height="25" viewBox="0 0 25 25" fill="none" xmlns="http://www.w3.org/2000/svg">
<path fill-rule="evenodd" clip-rule="evenodd" d="M12.5 0C15.9526 0 19.0776 1.39974 21.3379 3.66211C23.6003 5.92448 25 9.04948 25 12.5C25 15.9526 23.6003 19.0776 21.3379 21.3379C19.0755 23.6003 15.9505 25 12.5 25C9.04948 25 5.92244 23.6003 3.66211 21.3379C1.39974 19.0776 0 15.9526 0 12.5C0 9.04744 1.39974 5.92244 3.66211 3.66211C5.92244 1.39974 9.04744 0 12.5 0ZM15.6352 23.82L15.6108 23.8037L17.0125 19.106L14.1215 15.8997L10.7137 15.8691L8.01188 19.2505L9.36686 23.7915L9.33634 23.8118C10.3434 24.0926 11.4034 24.2432 12.5 24.2432C13.5864 24.2432 14.6383 24.0967 15.6352 23.82ZM2.48617 18.6381L7.43815 18.6625L10.026 15.4215L8.95589 12.1419L4.59798 10.2498L0.769043 13.0371C0.860596 15.0838 1.47705 16.9942 2.48617 18.6381ZM3.41187 5.06185L4.9174 9.56624L8.98234 11.3322L12.1236 8.89689V4.26025L8.24178 1.55233C6.71183 2.14844 5.33651 3.05583 4.19515 4.19718C3.92049 4.47184 3.65804 4.76074 3.41187 5.06185ZM16.6219 1.49943L12.8784 4.22567V8.89079L15.8285 11.1715L20.0623 9.35669L21.523 4.98454C21.2952 4.70988 21.0551 4.44743 20.8028 4.19515C19.6289 3.02124 18.2068 2.09351 16.6219 1.49943ZM24.2289 13.0941L24.2249 13.0961L20.1599 10.1359L16.1296 11.8632L14.8926 15.5314L17.686 18.63C17.6982 18.6422 17.7043 18.6564 17.7083 18.6727L22.5098 18.6503C23.5107 17.0186 24.1272 15.1245 24.2289 13.0941Z" fill="#305FE6"/>
</svg>
