<svg width="25" height="25" viewBox="0 0 25 25" fill="none" xmlns="http://www.w3.org/2000/svg">
<path d="M12.4522 1.90249e-05C10.2562 8.09313e-05 8.09947 0.582748 6.20219 1.68856C6.15458 1.71271 6.10896 1.74058 6.06573 1.77189C3.47585 3.32267 1.53619 5.76 0.606427 8.63192C-0.323338 11.5038 -0.180124 14.6155 1.00951 17.3899C2.19915 20.1642 4.35449 22.4131 7.07587 23.7194C9.79724 25.0257 12.9 25.3009 15.8088 24.4939C18.7176 23.6869 21.2351 21.8524 22.8944 19.3307C24.5537 16.809 25.2423 13.7711 24.8324 10.7804C24.4226 7.78965 22.9421 5.04901 20.6656 3.06666C18.389 1.08431 15.4709 -0.0052505 12.4522 1.90249e-05ZM21.8501 16.9636C18.0038 18.1532 13.8595 17.9335 10.1605 16.3438C10.8208 15.3204 11.6561 14.4212 12.6282 13.6875C14.1007 14.2829 15.6733 14.5916 17.2616 14.5969C19.1939 14.5967 21.1002 14.1511 22.8324 13.2948C22.7348 14.568 22.4017 15.812 21.8501 16.9636ZM22.7386 10.9406C21.7937 11.529 20.7604 11.962 19.6782 12.2229C19.4539 8.88637 18.3509 5.66851 16.4814 2.89585C18.1248 3.58962 19.5629 4.69312 20.6583 6.10097C21.7538 7.50883 22.47 9.17402 22.7386 10.9375V10.9406ZM13.2324 2.12294C15.8312 4.97663 17.375 8.63378 17.6074 12.4865C16.1839 12.5352 14.7656 12.2905 13.4407 11.7677C13.3382 10.0258 12.873 8.32447 12.075 6.77271C11.2769 5.22094 10.1636 3.85293 8.80635 2.75627C9.97114 2.31405 11.2063 2.08608 12.4522 2.08335C12.7157 2.08335 12.973 2.10314 13.2324 2.12294ZM6.70948 3.81773C7.68802 4.45584 8.55247 5.25374 9.26677 6.17814C6.14438 8.27195 3.71277 11.2444 2.27927 14.7198C1.82633 12.6677 2.00742 10.5265 2.79855 8.57965C3.58968 6.6328 4.95353 4.97218 6.70948 3.81773ZM3.44802 17.7136C4.48788 13.7361 6.93883 10.2726 10.3439 7.96877C10.9604 9.23551 11.3124 10.6146 11.3782 12.0219C9.9727 13.09 8.80862 14.4429 7.96224 15.992C7.11585 17.5412 6.60624 19.2517 6.46677 21.0115C5.23493 20.1422 4.20524 19.0173 3.44802 17.7136ZM12.4522 22.9167C11.1045 22.9163 9.76989 22.6531 8.52302 22.1417C8.50007 20.798 8.73779 19.4626 9.22302 18.2094C12.6469 19.7293 16.4492 20.1827 20.1345 19.5104C19.1622 20.5825 17.9765 21.4393 16.6535 22.0259C15.3305 22.6125 13.8994 22.916 12.4522 22.9167Z" fill="#305FE6"/>
</svg>
