<svg width="30" height="25" viewBox="0 0 30 25" fill="none" xmlns="http://www.w3.org/2000/svg">
<path d="M6.54776 8.56002C7.00771 9.47348 7.09894 10.5288 6.80257 11.5076C6.5062 12.4864 5.84491 13.3139 4.95552 13.8188C3.26519 14.4136 1.2368 13.0175 0.427118 10.7053C-0.0336329 9.79185 -0.125518 8.73624 0.170484 7.75695C0.466486 6.77765 1.12771 5.94967 2.01728 5.4444C3.7076 4.84966 5.73599 6.24783 6.54776 8.56002ZM20.1559 25C19.4183 25.001 18.6877 24.8562 18.0062 24.574C17.3247 24.2918 16.7057 23.8778 16.1847 23.3556C15.795 22.9661 15.2665 22.7474 14.7156 22.7474C14.1646 22.7474 13.6362 22.9661 13.2465 23.3556C12.1909 24.3991 10.7652 24.9824 9.28088 24.9782C7.79657 24.9739 6.37427 24.3824 5.3247 23.3328C4.27513 22.2832 3.6836 20.8609 3.67933 19.3766C3.67507 17.8923 4.25841 16.4666 5.30193 15.4111C6.5378 14.1742 8.00529 13.193 9.62053 12.5236C11.2358 11.8542 12.9671 11.5096 14.7156 11.5096C16.464 11.5096 18.1954 11.8542 19.8106 12.5236C21.4259 13.193 22.8934 14.1742 24.1292 15.4111C24.9146 16.1968 25.4493 17.1978 25.6658 18.2874C25.8823 19.3771 25.7709 20.5064 25.3456 21.5327C24.9203 22.5591 24.2003 23.4362 23.2766 24.0534C22.3528 24.6706 21.2669 25 20.1559 25ZM14.1521 4.71401C14.4172 7.50409 12.9773 9.92272 10.9384 10.1147C8.89961 10.3067 7.0319 8.20109 6.76897 5.41101C6.50394 2.62302 7.94385 0.204395 9.98267 0.0124079C12.0215 -0.181666 13.8871 1.92394 14.1521 4.71401ZM15.279 4.71401C15.014 7.50409 16.4539 9.92272 18.4927 10.1147C20.5315 10.3067 22.3972 8.20109 22.6622 5.41101C22.9272 2.62302 21.4873 0.204395 19.4485 0.0124079C17.4097 -0.181666 15.542 1.92394 15.279 4.71401ZM22.8834 8.55794C22.4222 9.47182 22.3303 10.5281 22.6267 11.5079C22.9231 12.4877 23.5852 13.3159 24.4756 13.8209C26.166 14.4136 28.1943 13.0175 29.004 10.7053C29.4648 9.79185 29.5567 8.73624 29.2607 7.75695C28.9647 6.77765 28.3034 5.94967 27.4139 5.4444C25.7236 4.84966 23.6952 6.24574 22.8834 8.55794Z" fill="#305FE6"/>
</svg>
