<svg width="27" height="25" viewBox="0 0 27 25" fill="none" xmlns="http://www.w3.org/2000/svg">
<path fill-rule="evenodd" clip-rule="evenodd" d="M2.71909 0H23.3678L26.087 7.4157V9.78261C26.087 10.8719 25.6778 11.879 25 12.6329V25H1.08696V12.6329C0.409188 11.879 0 10.8719 0 9.78261V7.4157L2.71909 0ZM22.0109 13.9752C22.2909 13.9752 22.5635 13.9465 22.8261 13.892V22.8261H17.3913V16.3043H8.69565V22.8261H3.26087V13.892C3.52351 13.9465 3.79603 13.9752 4.07609 13.9752C5.26999 13.9752 6.32694 13.4542 7.06522 12.6329C7.80349 13.4542 8.86045 13.9752 10.0543 13.9752C11.2483 13.9752 12.3052 13.4542 13.0435 12.6329C13.7817 13.4542 14.8387 13.9752 16.0326 13.9752C17.2265 13.9752 18.2835 13.4542 19.0217 12.6329C19.76 13.4542 20.817 13.9752 22.0109 13.9752ZM10.8696 22.8261H15.2174V18.4783H10.8696V22.8261ZM23.913 8.69565V9.78261C23.913 10.937 23.0226 11.8013 22.0109 11.8013C20.9991 11.8013 20.1087 10.937 20.1087 9.78261V8.69565H23.913ZM23.4438 6.52174L21.8496 2.17391H4.23743L2.64323 6.52174H23.4438ZM2.17391 8.69565V9.78261C2.17391 10.937 3.06433 11.8013 4.07609 11.8013C5.08784 11.8013 5.97826 10.937 5.97826 9.78261V8.69565H2.17391ZM8.15217 8.69565V9.78261C8.15217 10.937 9.04259 11.8013 10.0543 11.8013C11.0661 11.8013 11.9565 10.937 11.9565 9.78261V8.69565H8.15217ZM14.1304 8.69565V9.78261C14.1304 10.937 15.0209 11.8013 16.0326 11.8013C17.0443 11.8013 17.9348 10.937 17.9348 9.78261V8.69565H14.1304Z" fill="#305FE6"/>
</svg>
