<svg width="21" height="25" viewBox="0 0 21 25" fill="none" xmlns="http://www.w3.org/2000/svg">
<path fill-rule="evenodd" clip-rule="evenodd" d="M2.45799 3.24916C2.82603 2.59301 3.49891 2.17391 4.24901 2.17391C5.00975 2.17391 5.7052 2.60272 6.06781 3.24916H7.96377C8.32638 2.60274 9.02188 2.17391 9.78261 2.17391C10.5539 2.17391 11.2719 2.61213 11.6291 3.24916H13.5252C13.8932 2.59301 14.5661 2.17391 15.3162 2.17391C16.431 2.17391 17.3913 3.11543 17.3913 4.34783C17.3913 5.58022 16.431 6.52174 15.3162 6.52174C14.5661 6.52174 13.8932 6.10264 13.5252 5.44649H11.6291C11.2719 6.08352 10.5539 6.52174 9.78261 6.52174C9.02188 6.52174 8.32638 6.09291 7.96377 5.44649H6.06781C5.7052 6.09293 5.00975 6.52174 4.24901 6.52174C3.49891 6.52174 2.82603 6.10264 2.45799 5.44649C2.27833 5.12623 2.17391 4.75207 2.17391 4.34783C2.17391 3.94358 2.27833 3.56942 2.45799 3.24916ZM4.24901 0C2.6583 0 1.28739 0.89242 0.561986 2.18562C0.203536 2.82462 0 3.56419 0 4.34783C0 5.13146 0.203536 5.87103 0.561986 6.51003C0.942319 7.18804 1.50007 7.7559 2.17391 8.14271V23.3649L3.91799 25H15.6472L17.3913 23.3649V20.6522C19.1922 20.6522 20.6522 19.1922 20.6522 17.3913V13.0435C20.6522 11.2426 19.1922 9.78261 17.3913 9.78261V8.14412C18.6968 7.39481 19.5652 5.96209 19.5652 4.34783C19.5652 1.97836 17.6942 0 15.3162 0C14.2633 0 13.3068 0.390927 12.57 1.03023C11.8107 0.385942 10.8259 0 9.78261 0C8.73449 0 7.76391 0.38842 7.0158 1.03026C6.26775 0.38842 5.29714 0 4.24901 0ZM15.2174 8.69451C14.2036 8.67087 13.2838 8.28467 12.57 7.66542C11.8107 8.30971 10.8259 8.69565 9.78261 8.69565C8.73449 8.69565 7.76391 8.30723 7.0158 7.66539C6.29132 8.28701 5.35807 8.67093 4.34783 8.69451V22.4232L4.77767 22.8261H14.7875L15.2174 22.4232V8.69451ZM18.4783 13.0435V17.3913C18.4783 17.9916 17.9916 18.4783 17.3913 18.4783V11.9565C17.9916 11.9565 18.4783 12.4432 18.4783 13.0435ZM6.52174 19.5652V10.8696H8.69565V19.5652H6.52174ZM10.8696 10.8696V19.5652H13.0435V10.8696H10.8696Z" fill="#305FE6"/>
</svg>
