<svg width="24" height="25" viewBox="0 0 24 25" fill="none" xmlns="http://www.w3.org/2000/svg">
<path d="M3.818 16.718C4.67117 17.4398 5.62419 18.0345 6.64568 18.4912L5.72278 23.9201C5.63887 24.4135 5.97094 24.8816 6.46437 24.9655C6.51578 24.9742 6.56689 24.9785 6.61737 24.9785C7.05119 24.9785 7.43462 24.6659 7.50976 24.2239L7.75352 22.79H15.8245L16.0683 24.2239C16.1434 24.6659 16.5268 24.9785 16.9607 24.9785C17.0111 24.9785 17.0623 24.9742 17.1137 24.9655C17.6071 24.8816 17.9392 24.4135 17.8552 23.9201L16.9323 18.4912C17.9539 18.0345 18.9068 17.4397 19.76 16.718C20.8356 15.8082 21.7092 14.7373 22.3567 13.5349C23.0307 12.2833 23.4316 10.94 23.5486 9.54234C23.6056 8.86096 23.3724 8.18105 22.9088 7.67712C22.444 7.17167 21.7834 6.88184 21.0968 6.88184H2.48125C1.79457 6.88184 1.13409 7.17171 0.669169 7.67712C0.205604 8.18101 -0.0275753 8.86092 0.0294607 9.54239C0.146325 10.94 0.547312 12.2833 1.22125 13.5349C1.86874 14.7372 2.74239 15.8082 3.818 16.718ZM2.48125 8.69442H21.0968C21.4738 8.69442 21.7737 9.01557 21.7422 9.39129C21.4811 12.5141 19.4793 15.1944 16.6167 16.6344C16.0716 16.9086 15.4954 17.1379 14.894 17.3166C13.9167 17.607 12.8731 17.7644 11.789 17.7644C10.7049 17.7644 9.66131 17.607 8.684 17.3166C8.08258 17.1379 7.50638 16.9086 6.96132 16.6344C4.09873 15.1944 2.09689 12.5141 1.83578 9.39129C1.8043 9.01557 2.10421 8.69442 2.48125 8.69442ZM15.5164 20.9774H8.06163L8.37834 19.1145C9.4737 19.419 10.6212 19.5771 11.789 19.5771C12.9568 19.5771 14.1043 19.419 15.1996 19.1145L15.5164 20.9774Z" fill="#305FE6"/>
<path d="M16.9607 24.9998C16.5076 24.9998 16.1236 24.6751 16.0475 24.2277L15.8068 22.8114H7.77148L7.53072 24.2277C7.45465 24.6751 7.07058 24.9998 6.61747 24.9998C6.56577 24.9998 6.51313 24.9954 6.46096 24.9866C6.2167 24.9451 6.00328 24.811 5.85992 24.6088C5.71657 24.4068 5.66051 24.161 5.70206 23.9168L6.62221 18.504C5.59662 18.0439 4.64871 17.4486 3.80447 16.7345C2.7268 15.8229 1.85145 14.7498 1.20278 13.5451C0.52744 12.291 0.12565 10.945 0.00853113 9.54437C-0.0489703 8.85701 0.186197 8.17127 0.65374 7.66298C1.12264 7.15321 1.78879 6.86084 2.48139 6.86084H21.0969C21.7896 6.86084 22.4557 7.15321 22.9246 7.66298C23.3921 8.17127 23.6273 8.85701 23.5698 9.54428C23.4526 10.945 23.0508 12.291 22.3755 13.5451C21.7268 14.7498 20.8514 15.8228 19.7738 16.7344C18.9296 17.4485 17.9817 18.0438 16.956 18.504L17.8762 23.9168C17.9177 24.161 17.8616 24.4068 17.7183 24.6088C17.575 24.8108 17.3615 24.945 17.1173 24.9866C17.0651 24.9954 17.0124 24.9998 16.9607 24.9998ZM7.73572 22.7691H15.8425L16.0893 24.2206C16.1618 24.6476 16.5284 24.9576 16.9608 24.9576C17.0101 24.9576 17.0604 24.9533 17.1103 24.9449C17.3433 24.9052 17.547 24.7772 17.6838 24.5844C17.8207 24.3915 17.8742 24.157 17.8345 23.9239L16.9089 18.4788L16.9239 18.4721C17.9516 18.0127 18.9012 17.4172 19.7465 16.7022C20.8201 15.794 21.6921 14.7251 22.3383 13.5251C23.0109 12.2762 23.4111 10.9357 23.5277 9.54081C23.5842 8.86527 23.353 8.19124 22.8935 7.69163C22.4326 7.19053 21.7778 6.90315 21.097 6.90315H2.48135C1.80055 6.90315 1.14574 7.19053 0.684839 7.69163C0.225293 8.19124 -0.0058971 8.86527 0.0506735 9.54085C0.167284 10.9356 0.567467 12.2761 1.24001 13.525C1.88615 14.725 2.75815 15.794 3.83176 16.7021C4.67706 17.4172 5.62675 18.0127 6.65441 18.4721L6.66939 18.4788L5.74374 23.9239C5.70409 24.157 5.75761 24.3915 5.89441 24.5843C6.0312 24.7772 6.23493 24.9052 6.46803 24.9448C6.51783 24.9533 6.56813 24.9575 6.61747 24.9575C7.04989 24.9575 7.41644 24.6476 7.489 24.2206L7.73572 22.7691ZM15.5415 20.9988H8.03669L8.36151 19.0881L8.38411 19.0944C9.48649 19.4008 10.6321 19.5561 11.7891 19.5561C12.9461 19.5561 14.0917 19.4008 15.1941 19.0944L15.2167 19.0881L15.5415 20.9988ZM8.08678 20.9565H15.4914L15.1828 19.1414C14.0836 19.4447 12.9419 19.5985 11.789 19.5985C10.6361 19.5985 9.49445 19.4447 8.39532 19.1414L8.08678 20.9565ZM11.7891 17.7857C10.7266 17.7857 9.6799 17.6348 8.67804 17.3371C8.0828 17.1602 7.50204 16.9303 6.9519 16.6535C3.99077 15.164 2.07037 12.4498 1.81477 9.39327C1.79916 9.20706 1.86059 9.02833 1.9877 8.89014C2.11434 8.75246 2.29424 8.67347 2.4813 8.67347H21.0968C21.2839 8.67347 21.4638 8.75242 21.5904 8.8901C21.7175 9.02833 21.7789 9.20702 21.7634 9.39327C21.5078 12.4499 19.5873 15.164 16.6263 16.6535C16.0765 16.9301 15.4957 17.1601 14.9001 17.3371C13.8983 17.6348 12.8516 17.7857 11.7891 17.7857ZM2.48135 8.71582C2.30609 8.71582 2.13756 8.78982 2.01888 8.91879C1.89986 9.04822 1.84236 9.21544 1.85695 9.38976C2.11129 12.4315 4.02305 15.1328 6.9709 16.6158C7.51879 16.8914 8.09723 17.1205 8.6901 17.2966C9.68802 17.5931 10.7307 17.7435 11.7891 17.7435C12.8475 17.7435 13.8902 17.5931 14.8881 17.2966C15.4814 17.1203 16.0597 16.8912 16.6073 16.6158C19.5551 15.1329 21.4669 12.4315 21.7213 9.38976C21.7359 9.21544 21.6783 9.04818 21.5593 8.91875C21.4407 8.78978 21.2721 8.71578 21.0969 8.71578L2.48135 8.71582Z" fill="#305FE6"/>
<path d="M7.92196 5.48333L9.73315 5.55569C9.73853 5.42126 9.76205 4.21792 8.9459 3.36848C8.60948 3.01835 7.99935 2.60094 7.00321 2.60094C6.44745 2.60094 6.03796 2.41477 5.75138 2.03181C5.47961 1.66869 5.38318 1.20987 5.38318 0.92731C5.38318 0.426764 4.97742 0.0209961 4.47687 0.0209961C3.97632 0.0209961 3.57056 0.426764 3.57056 0.92731C3.57056 1.68849 3.84325 2.50739 4.30009 3.11782C4.74246 3.70891 5.5705 4.41357 7.00321 4.41357C7.43238 4.41357 7.58457 4.5689 7.63458 4.61992C7.8783 4.86859 7.92467 5.34455 7.92171 5.49171L7.92196 5.48333Z" fill="#305FE6"/>
<path d="M9.75333 5.57781L7.92103 5.50461L7.92154 5.49204L7.90047 5.49149C7.90339 5.34666 7.85799 4.8784 7.61939 4.63494C7.5709 4.58547 7.42332 4.43489 7.00312 4.43489C5.5617 4.43489 4.72833 3.72566 4.28308 3.13067C3.82362 2.51673 3.54932 1.6931 3.54932 0.927469C3.54932 0.41605 3.96537 0 4.47679 0C4.98821 0 5.40426 0.41605 5.40426 0.927469C5.40426 1.20677 5.49958 1.66031 5.76826 2.01928C6.05056 2.39657 6.45451 2.57995 7.00317 2.57995C8.00671 2.57995 8.62184 3.00086 8.96109 3.35395C9.78354 4.20992 9.75968 5.42138 9.75426 5.55669L9.75333 5.57781ZM7.94274 5.46314L9.71259 5.53384C9.71779 5.32605 9.70827 4.19274 8.93054 3.38323C8.59696 3.03607 7.99173 2.62222 7.00308 2.62222C6.44017 2.62222 6.02518 2.4333 5.73433 2.04458C5.45943 1.67731 5.3619 1.21324 5.3619 0.927427C5.3619 0.439363 4.96481 0.0422693 4.47674 0.0422693C3.98868 0.0422693 3.59159 0.439363 3.59159 0.927427C3.59159 1.68425 3.86272 2.49837 4.31693 3.10529C4.75642 3.69253 5.57917 4.39253 7.00308 4.39253C7.44109 4.39253 7.59803 4.55264 7.64956 4.60523C7.88392 4.84442 7.93961 5.28763 7.94274 5.46314Z" fill="#305FE6"/>
<path d="M14.3156 5.48333L16.1267 5.55569C16.1321 5.42126 16.1556 4.21792 15.3395 3.36848C15.003 3.01835 14.3929 2.60094 13.3968 2.60094C12.841 2.60094 12.4316 2.41477 12.1449 2.03181C11.8732 1.66869 11.7767 1.20987 11.7767 0.92731C11.7767 0.426764 11.371 0.0209961 10.8704 0.0209961C10.3699 0.0209961 9.96411 0.426764 9.96411 0.92731C9.96411 1.68849 10.2368 2.50739 10.6936 3.11782C11.136 3.70891 11.9641 4.41357 13.3967 4.41357C13.8259 4.41357 13.9781 4.5689 14.0281 4.61992C14.2719 4.86859 14.3182 5.34455 14.3153 5.49171L14.3156 5.48333Z" fill="#305FE6"/>
<path d="M16.147 5.57781L14.3147 5.50461L14.3152 5.49208L14.2941 5.49149C14.297 5.3467 14.2516 4.87848 14.0129 4.63494C13.9645 4.58547 13.8169 4.43489 13.3967 4.43489C11.9553 4.43489 11.1219 3.72566 10.6766 3.13067C10.2172 2.51673 9.94287 1.6931 9.94287 0.927469C9.94287 0.41605 10.3589 0 10.8703 0C11.3818 0 11.7978 0.41605 11.7978 0.927469C11.7978 1.20681 11.8931 1.66031 12.1618 2.01928C12.4441 2.39657 12.848 2.57995 13.3967 2.57995C14.4003 2.57995 15.0154 3.00086 15.3546 3.35395C16.1769 4.20979 16.1532 5.42134 16.1478 5.55669L16.147 5.57781ZM14.3364 5.46314L16.1062 5.53384C16.1114 5.32605 16.1017 4.19257 15.3241 3.38323C14.9905 3.03607 14.3853 2.62222 13.3967 2.62222C12.8338 2.62222 12.4188 2.4333 12.1279 2.04462C11.8531 1.67736 11.7555 1.21328 11.7555 0.927469C11.7555 0.439406 11.3584 0.0423116 10.8704 0.0423116C10.3823 0.0423116 9.98522 0.439406 9.98522 0.927469C9.98522 1.6843 10.2564 2.49841 10.7106 3.10533C11.1501 3.69257 11.9729 4.39258 13.3967 4.39258C13.8348 4.39258 13.9917 4.55268 14.0432 4.60528C14.2776 4.8445 14.3332 5.28763 14.3364 5.46314Z" fill="#305FE6"/>
</svg>
