<svg width="19" height="25" viewBox="0 0 19 25" fill="none" xmlns="http://www.w3.org/2000/svg">
<path d="M3.13291 15.1503H13.044C13.4569 15.1503 13.7919 14.8151 13.7919 14.4022V13.6841H2.38477V14.4022C2.38477 14.8151 2.71953 15.1503 3.13291 15.1503Z" fill="#305FE6"/>
<path d="M9.4812 9.01299V8.41611C9.4812 8.1104 9.23306 7.8623 8.92715 7.8623H7.24956C6.9436 7.8623 6.69551 8.11045 6.69551 8.41611V9.01299C4.59985 9.52373 2.94492 11.159 2.4082 13.2441H13.7685C13.2318 11.159 11.5766 9.52373 9.4812 9.01299Z" fill="#305FE6"/>
<path d="M0 24.3644C0 24.7156 0.284424 25.0001 0.635303 25.0001C0.986182 25.0001 1.27056 24.7155 1.27056 24.3644C1.27056 24.0133 0.635303 23.2329 0.635303 23.2329C0.635303 23.2329 0 24.0133 0 24.3644Z" fill="#305FE6"/>
<path d="M3.72632 24.3644C3.72632 24.7156 4.01074 25.0001 4.36157 25.0001C4.71245 25.0001 4.99687 24.7155 4.99687 24.3644C4.99687 24.0133 4.36157 23.2329 4.36157 23.2329C4.36157 23.2329 3.72632 24.0133 3.72632 24.3644Z" fill="#305FE6"/>
<path d="M7.45312 24.3644C7.45312 24.7156 7.7373 25.0001 8.08818 25.0001C8.43931 25.0001 8.72344 24.7155 8.72344 24.3644C8.72344 24.0133 8.08818 23.2329 8.08818 23.2329C8.08818 23.2329 7.45312 24.0133 7.45312 24.3644Z" fill="#305FE6"/>
<path d="M11.1797 24.3644C11.1797 24.7156 11.4641 25.0001 11.8149 25.0001C12.1658 25.0001 12.4502 24.7155 12.4502 24.3644C12.4502 24.0133 11.8149 23.2329 11.8149 23.2329C11.8149 23.2329 11.1797 24.0133 11.1797 24.3644Z" fill="#305FE6"/>
<path d="M14.906 24.3644C14.906 24.7156 15.1904 25.0001 15.5413 25.0001C15.8921 25.0001 16.1765 24.7155 16.1765 24.3644C16.1765 24.0133 15.5413 23.2329 15.5413 23.2329C15.5413 23.2329 14.906 24.0133 14.906 24.3644Z" fill="#305FE6"/>
<path d="M1.86353 21.0056C1.86353 21.3562 2.14771 21.6404 2.49858 21.6404C2.84971 21.6404 3.13384 21.3562 3.13384 21.0056C3.13384 20.6544 2.49858 19.8735 2.49858 19.8735C2.49858 19.8735 1.86353 20.6544 1.86353 21.0056Z" fill="#305FE6"/>
<path d="M5.5896 21.0056C5.5896 21.3562 5.87422 21.6404 6.22485 21.6404C6.57573 21.6404 6.86035 21.3562 6.86035 21.0056C6.86035 20.6544 6.2251 19.8735 6.2251 19.8735C6.2251 19.8735 5.5896 20.6544 5.5896 21.0056Z" fill="#305FE6"/>
<path d="M9.31616 21.0056C9.31616 21.3562 9.60078 21.6404 9.95142 21.6404C10.3023 21.6404 10.5869 21.3562 10.5869 21.0056C10.5869 20.6544 9.95142 19.8735 9.95142 19.8735C9.95142 19.8735 9.31616 20.6544 9.31616 21.0056Z" fill="#305FE6"/>
<path d="M13.0425 21.0056C13.0425 21.3562 13.3271 21.6404 13.678 21.6404C14.0289 21.6404 14.3132 21.3562 14.3132 21.0056C14.3132 20.6544 13.678 19.8735 13.678 19.8735C13.678 19.8735 13.0425 20.6544 13.0425 21.0056Z" fill="#305FE6"/>
<path d="M3.72632 17.9812C3.72632 18.3322 4.01074 18.6169 4.36157 18.6169C4.71245 18.6169 4.99687 18.3322 4.99687 17.9812C4.99687 17.6305 4.36157 16.8496 4.36157 16.8496C4.36157 16.8496 3.72632 17.6306 3.72632 17.9812Z" fill="#305FE6"/>
<path d="M7.45312 17.9812C7.45312 18.3322 7.7373 18.6169 8.08818 18.6169C8.43931 18.6169 8.72344 18.3322 8.72344 17.9812C8.72344 17.6305 8.08818 16.8496 8.08818 16.8496C8.08818 16.8496 7.45312 17.6306 7.45312 17.9812Z" fill="#305FE6"/>
<path d="M11.1797 17.9812C11.1797 18.3322 11.4641 18.6169 11.8149 18.6169C12.1658 18.6169 12.4502 18.3322 12.4502 17.9812C12.4502 17.6305 11.8149 16.8496 11.8149 16.8496C11.8149 16.8496 11.1797 17.6306 11.1797 17.9812Z" fill="#305FE6"/>
<path d="M16.1072 0.88999V4.40342C16.5919 4.94922 17.2986 5.29336 18.0863 5.29336V0C17.2986 0 16.5919 0.34458 16.1072 0.88999Z" fill="#305FE6"/>
<path d="M8.90967 6.6606C8.90967 6.19907 9.00259 5.76362 9.17065 5.36616C9.42251 4.77026 9.84551 4.26089 10.3769 3.90186C10.6423 3.72251 10.9349 3.58067 11.2467 3.48379C11.5584 3.38687 11.8899 3.33399 12.2363 3.33399H15.4333V1.72168H12.2363C11.5563 1.72119 10.9047 1.85977 10.3134 2.11026C9.42578 2.48569 8.67344 3.11069 8.14092 3.89854C7.87456 4.29273 7.66343 4.72764 7.51899 5.19248C7.37437 5.65689 7.29688 6.15127 7.29688 6.6606V7.22334H8.90967V6.6606Z" fill="#305FE6"/>
</svg>
