<svg width="25" height="20" viewBox="0 0 25 20" fill="none" xmlns="http://www.w3.org/2000/svg">
<path d="M12.5001 19.9998C13.0963 19.9998 13.5795 19.473 13.5795 18.8231C13.5795 18.1733 13.0963 17.6465 12.5001 17.6465C11.9039 17.6465 11.4207 18.1733 11.4207 18.8231C11.4207 19.473 11.9039 19.9998 12.5001 19.9998Z" fill="#305FE6"/>
<path d="M1.79324 6.76291C4.75068 3.92121 8.55761 2.35333 12.5 2.35333C16.4423 2.35333 20.2493 3.92121 23.2068 6.76291C23.654 7.19261 24.3361 7.14578 24.7303 6.65828C25.1245 6.17079 25.0815 5.42723 24.6343 4.99751C21.2826 1.77694 16.968 0 12.5 0C8.03196 0 3.71743 1.77694 0.365675 4.99751C-0.0815442 5.42723 -0.124516 6.17079 0.269695 6.65828C0.66391 7.14578 1.34602 7.19261 1.79324 6.76291Z" fill="#305FE6"/>
<path d="M5.63482 10.9611C7.57445 9.20006 10.0189 8.23565 12.5433 8.23565C15.0675 8.23565 17.5121 9.20006 19.4517 10.9611C19.9098 11.377 20.5904 11.3094 20.972 10.8101C21.3535 10.3107 21.2915 9.56883 20.8334 9.15288C18.5059 7.03957 15.5725 5.88232 12.5433 5.88232C9.51408 5.88232 6.58069 7.03957 4.25313 9.15288C3.79505 9.56883 3.73301 10.3107 4.11456 10.8101C4.4961 11.3094 5.17674 11.377 5.63482 10.9611Z" fill="#305FE6"/>
<path d="M12.5054 14.1185C11.3852 14.1185 10.2927 14.4984 9.37951 15.2057C8.89353 15.5821 8.21964 15.4577 7.87437 14.9279C7.52908 14.3982 7.64316 13.6636 8.12916 13.2873C9.40765 12.2971 10.9371 11.7651 12.5054 11.7651C14.0737 11.7651 15.6031 12.2971 16.8816 13.2873C17.3677 13.6636 17.4817 14.3982 17.1365 14.9279C16.7912 15.4577 16.1173 15.5821 15.6313 15.2057C14.7181 14.4984 13.6256 14.1185 12.5054 14.1185Z" fill="#305FE6"/>
</svg>
