<svg width="25" height="25" viewBox="0 0 25 25" fill="none" xmlns="http://www.w3.org/2000/svg">
<path d="M2.85724 24.8147C2.60994 25.062 2.20544 25.062 1.95808 24.8147L0.18549 23.042C-0.06181 22.7948 -0.06181 22.3902 0.18537 22.1428L5.84979 16.4784C6.09709 16.2311 6.50166 16.2311 6.74902 16.4785L8.52167 18.2511C8.76897 18.4985 8.76891 18.903 8.52167 19.1502L2.85724 24.8147Z" fill="#305FE6"/>
<path fill-rule="evenodd" clip-rule="evenodd" d="M23.3508 1.64924C22.0101 0.308553 20.0686 -0.242288 17.884 0.098331C15.8097 0.421695 13.7448 1.5223 12.0696 3.19752C10.3944 4.87273 9.29369 6.93764 8.97038 9.01192C8.88751 9.54354 8.85784 10.0606 8.87904 10.5582C8.85396 10.9031 8.86869 11.2677 8.88387 11.6434C8.93042 12.7954 8.98117 14.0516 7.90136 15.1602L6.36646 16.6951L8.30479 18.6335L9.83772 17.1006C10.9468 16.0187 12.2038 16.0695 13.3565 16.1161C13.7322 16.1313 14.0968 16.146 14.4417 16.1209C14.9394 16.1421 15.4564 16.1125 15.9881 16.0296C18.0624 15.7062 20.1273 14.6055 21.8024 12.9304C23.4776 11.2552 24.5783 9.19026 24.9016 7.11604C25.2422 4.9313 24.6915 2.98992 23.3508 1.64924ZM19 3.5C19 3.77614 18.7761 4 18.5 4C18.2239 4 18 3.77614 18 3.5C18 3.22386 18.2239 3 18.5 3C18.7761 3 19 3.22386 19 3.5ZM12.5 10C12.7761 10 13 9.77614 13 9.5C13 9.22386 12.7761 9 12.5 9C12.2239 9 12 9.22386 12 9.5C12 9.77614 12.2239 10 12.5 10ZM13 7.5C13 7.77614 12.7761 8 12.5 8C12.2239 8 12 7.77614 12 7.5C12 7.22386 12.2239 7 12.5 7C12.7761 7 13 7.22386 13 7.5ZM13.5 7C13.7761 7 14 6.77614 14 6.5C14 6.22386 13.7761 6 13.5 6C13.2239 6 13 6.22386 13 6.5C13 6.77614 13.2239 7 13.5 7ZM15 5.5C15 5.77614 14.7761 6 14.5 6C14.2239 6 14 5.77614 14 5.5C14 5.22386 14.2239 5 14.5 5C14.7761 5 15 5.22386 15 5.5ZM15.5 5C15.7761 5 16 4.77614 16 4.5C16 4.22386 15.7761 4 15.5 4C15.2239 4 15 4.22386 15 4.5C15 4.77614 15.2239 5 15.5 5ZM17 3.5C17 3.77614 16.7761 4 16.5 4C16.2239 4 16 3.77614 16 3.5C16 3.22386 16.2239 3 16.5 3C16.7761 3 17 3.22386 17 3.5ZM21.5 7C21.7761 7 22 6.77614 22 6.5C22 6.22386 21.7761 6 21.5 6C21.2239 6 21 6.22386 21 6.5C21 6.77614 21.2239 7 21.5 7ZM16 12.5C16 12.7761 15.7761 13 15.5 13C15.2239 13 15 12.7761 15 12.5C15 12.2239 15.2239 12 15.5 12C15.7761 12 16 12.2239 16 12.5ZM17.5 13C17.7761 13 18 12.7761 18 12.5C18 12.2239 17.7761 12 17.5 12C17.2239 12 17 12.2239 17 12.5C17 12.7761 17.2239 13 17.5 13ZM19 11.5C19 11.7761 18.7761 12 18.5 12C18.2239 12 18 11.7761 18 11.5C18 11.2239 18.2239 11 18.5 11C18.7761 11 19 11.2239 19 11.5ZM19.5 11C19.7761 11 20 10.7761 20 10.5C20 10.2239 19.7761 10 19.5 10C19.2239 10 19 10.2239 19 10.5C19 10.7761 19.2239 11 19.5 11ZM21 9.5C21 9.77614 20.7761 10 20.5 10C20.2239 10 20 9.77614 20 9.5C20 9.22386 20.2239 9 20.5 9C20.7761 9 21 9.22386 21 9.5ZM21.5 9C21.7761 9 22 8.77614 22 8.5C22 8.22386 21.7761 8 21.5 8C21.2239 8 21 8.22386 21 8.5C21 8.77614 21.2239 9 21.5 9ZM14 8.5C14 8.77614 13.7761 9 13.5 9C13.2239 9 13 8.77614 13 8.5C13 8.22386 13.2239 8 13.5 8C13.7761 8 14 8.22386 14 8.5ZM14.5 8C14.7761 8 15 7.77614 15 7.5C15 7.22386 14.7761 7 14.5 7C14.2239 7 14 7.22386 14 7.5C14 7.77614 14.2239 8 14.5 8ZM16 6.5C16 6.77614 15.7761 7 15.5 7C15.2239 7 15 6.77614 15 6.5C15 6.22386 15.2239 6 15.5 6C15.7761 6 16 6.22386 16 6.5ZM16.5 6C16.7761 6 17 5.77614 17 5.5C17 5.22386 16.7761 5 16.5 5C16.2239 5 16 5.22386 16 5.5C16 5.77614 16.2239 6 16.5 6ZM18 4.5C18 4.77614 17.7761 5 17.5 5C17.2239 5 17 4.77614 17 4.5C17 4.22386 17.2239 4 17.5 4C17.7761 4 18 4.22386 18 4.5ZM16.5 12C16.7761 12 17 11.7761 17 11.5C17 11.2239 16.7761 11 16.5 11C16.2239 11 16 11.2239 16 11.5C16 11.7761 16.2239 12 16.5 12ZM18 10.5C18 10.7761 17.7761 11 17.5 11C17.2239 11 17 10.7761 17 10.5C17 10.2239 17.2239 10 17.5 10C17.7761 10 18 10.2239 18 10.5ZM18.5 10C18.7761 10 19 9.77614 19 9.5C19 9.22386 18.7761 9 18.5 9C18.2239 9 18 9.22386 18 9.5C18 9.77614 18.2239 10 18.5 10ZM20 8.5C20 8.77614 19.7761 9 19.5 9C19.2239 9 19 8.77614 19 8.5C19 8.22386 19.2239 8 19.5 8C19.7761 8 20 8.22386 20 8.5ZM20.5 8C20.7761 8 21 7.77614 21 7.5C21 7.22386 20.7761 7 20.5 7C20.2239 7 20 7.22386 20 7.5C20 7.77614 20.2239 8 20.5 8Z" fill="#305FE6"/>
<path d="M7.94649 19.7251L5.27466 17.0532L4.64139 17.6865L7.31322 20.3583L7.94649 19.7251Z" fill="#305FE6"/>
<path d="M6.76436 20.9072L4.09253 18.2354L3.45926 18.8686L6.13109 21.5404L6.76436 20.9072Z" fill="#305FE6"/>
<path d="M5.58247 22.0893L2.91064 19.4175L2.27738 20.0507L4.94921 22.7226L5.58247 22.0893Z" fill="#305FE6"/>
</svg>
