<svg width="25" height="25" viewBox="0 0 25 25" fill="none" xmlns="http://www.w3.org/2000/svg">
<path d="M21.324 3.65521C19.5763 1.9091 17.3501 0.720344 14.9269 0.239216C12.5036 -0.241912 9.99216 0.00618758 7.7099 0.952153C5.42765 1.89812 3.47708 3.49948 2.10477 5.55381C0.732451 7.60815 0 10.0232 0 12.4938C0 14.9643 0.732451 17.3794 2.10477 19.4337C3.47708 21.488 5.42765 23.0894 7.7099 24.0354C9.99216 24.9813 12.5036 25.2294 14.9269 24.7483C17.3501 24.2672 19.5763 23.0784 21.324 21.3323C23.6648 18.9864 24.9793 15.8077 24.9793 12.4938C24.9793 9.17979 23.6648 6.00115 21.324 3.65521ZM22.8334 11.3813C21.5843 11.5328 20.317 11.3982 19.1276 10.9876C17.9382 10.5771 16.8577 9.9013 15.968 9.01151C15.0783 8.12171 14.4027 7.04117 13.9923 5.8517C13.5818 4.66222 13.4474 3.39496 13.599 2.14584C15.9633 2.39441 18.1706 3.44733 19.8515 5.12845C21.5324 6.80957 22.5851 9.01693 22.8334 11.3813ZM2.13758 13.6063C3.38672 13.4547 4.65396 13.5893 5.84339 13.9999C7.03282 14.4105 8.11328 15.0862 9.00298 15.976C9.89268 16.8658 10.5683 17.9463 10.9787 19.1358C11.3892 20.3253 11.5236 21.5926 11.372 22.8417C9.00765 22.5931 6.80042 21.5402 5.11948 19.8591C3.43855 18.1779 2.38588 15.9706 2.13758 13.6063ZM19.8511 19.8563C18.1398 21.5714 15.8815 22.6325 13.4688 22.8552C13.6183 21.3274 13.4273 19.7854 12.9094 18.3402C12.3916 16.8951 11.5598 15.5827 10.474 14.4975C9.38824 13.4123 8.07538 12.5813 6.62994 12.0642C5.1845 11.5472 3.64242 11.357 2.11466 11.5073C2.34123 9.0951 3.4033 6.83781 5.11735 5.12548C6.83139 3.41314 9.08974 2.35333 11.5022 2.12917C11.3621 3.5735 11.5257 5.03116 11.9826 6.40846C12.4395 7.78576 13.1795 9.05223 14.1551 10.1265C15.1306 11.2007 16.3201 12.059 17.6472 12.6461C18.9742 13.2332 20.4094 13.5361 21.8605 13.5354C22.1907 13.5354 22.522 13.5188 22.8532 13.4875C22.6269 15.8968 21.5649 18.151 19.8511 19.8594V19.8563Z" fill="#305FE6"/>
</svg>
