<svg width="227" height="52" viewBox="0 0 227 52" fill="none" xmlns="http://www.w3.org/2000/svg">
<mask id="mask0_2625_5517" style="mask-type:alpha" maskUnits="userSpaceOnUse" x="11" y="5" width="47" height="43">
<path d="M52.112 5.67285H16.2452C13.3482 5.67285 11 8.15392 11 11.2148V34.0281C11 37.0889 13.3482 39.5705 16.2452 39.5705H21.8535C23.2442 39.5705 24.5787 40.1543 25.5621 41.1933L30.4691 46.3766C32.5178 48.5414 35.8385 48.5414 37.8872 46.3766L42.7947 41.1913C43.7781 40.1523 45.1121 39.5685 46.5032 39.5685H52.112C55.009 39.5685 57.3572 37.0869 57.3572 34.0261V11.2128C57.3572 8.15392 55.009 5.67285 52.112 5.67285Z" fill="#F2F2F2"/>
</mask>
<g mask="url(#mask0_2625_5517)">
<path d="M61.5233 -5.79102L6.64185 -1.43209V49.4799H61.5233V-5.79102Z" fill="#16D3DC"/>
<path d="M34.157 34.1523L68.4265 31.5238V1.62598L34.157 4.25423V34.1523Z" fill="#18BECB"/>
<path d="M34.1841 53.8787C33.9536 53.8846 33.7227 53.8956 33.4922 53.8956C24.6106 53.8956 15.7289 53.8956 6.84692 53.8956V31.4669C7.78109 31.1231 8.68087 30.6918 9.53435 30.1788C12.2913 28.4937 15.2171 28.1853 18.2865 29.1546C18.3858 29.1865 18.4931 29.2005 18.5964 29.2229C19.5932 29.6498 20.4897 30.2689 21.4567 30.7471C23.5541 31.7842 25.6783 31.812 27.7921 30.765C28.103 30.5962 28.4258 30.4472 28.7223 30.2555C30.3454 29.1897 32.2425 28.6201 34.1826 28.6162C34.1831 32.8556 34.1836 49.6368 34.1841 53.8787Z" fill="#FDDA41"/>
<path d="M34.1443 53.8788C34.3747 53.8848 34.6057 53.8958 34.8361 53.8958C43.7181 53.8958 52.5998 53.8958 61.4814 53.8958V31.467C60.5473 31.1233 59.6475 30.692 58.794 30.1789C56.0366 28.4938 53.1112 28.1865 50.0419 29.1523C49.9425 29.1842 49.8353 29.1982 49.732 29.2206C48.7352 29.6475 47.8387 30.2666 46.8712 30.7448C44.7743 31.7818 42.6496 31.8097 40.5363 30.7627C40.2254 30.5939 39.9026 30.4449 39.6061 30.2531C37.9825 29.1871 36.0849 28.6175 34.1443 28.6139C34.1443 32.8558 34.1443 49.637 34.1443 53.8788Z" fill="#FBBE29"/>
<path d="M34.1674 7.71651L33.6032 7.56409L31.8883 7.09736C30.634 6.76516 29.3212 6.7209 28.0475 6.9679C26.7738 7.2149 25.572 7.74678 24.5317 8.52397C23.4913 9.30117 22.639 10.3037 22.0384 11.4568C21.4377 12.61 21.1041 13.8842 21.0623 15.1846C21.0206 16.485 21.2717 17.7781 21.7972 18.9676C22.3226 20.1572 23.1087 21.2126 24.0971 22.0553C25.0854 22.8981 26.2506 23.5064 27.5058 23.8351C28.761 24.1638 30.0739 24.2043 31.3469 23.9538L31.5287 23.9179C31.5394 23.9159 31.5496 23.9136 31.5597 23.9113C31.5798 23.9068 31.5998 23.9023 31.6235 23.9L31.7283 23.8875L31.8341 23.8746C31.847 23.8733 31.8594 23.8715 31.8719 23.8697C31.8946 23.8664 31.9174 23.8631 31.9434 23.8631L32.1773 23.8492C32.2465 23.843 32.3212 23.8427 32.3958 23.8424C32.4057 23.8423 32.4157 23.8423 32.4256 23.8422C32.4628 23.842 32.4999 23.8414 32.5373 23.8408C32.5846 23.84 32.6323 23.8392 32.6809 23.8392L32.9491 23.8472L33.0842 23.8507L33.2243 23.8596C34.0303 23.9116 34.8327 24.0094 35.6276 24.1525C36.4699 24.2995 37.3406 24.4873 38.2197 24.7089C39.0988 24.9306 39.9928 25.1816 40.8867 25.4561C42.6777 26.006 44.4836 26.6446 46.2785 27.3553C48.0734 28.0661 49.8624 28.8422 51.631 29.68C53.3996 30.5178 55.1498 31.4179 56.8678 32.3783C57.0291 32.4684 57.1902 32.5592 57.351 32.6506V23.884C57.0396 23.5664 56.7259 23.2507 56.4099 22.9366C54.898 21.4344 53.3321 19.9789 51.7045 18.5618C50.0769 17.1447 48.3888 15.7759 46.6122 14.4549C45.7232 13.7949 44.8118 13.1484 43.8662 12.5178C42.9206 11.8872 41.9436 11.2705 40.9121 10.6797C39.8805 10.089 38.7973 9.51915 37.6138 8.98618L37.3922 8.88656L37.1638 8.78943L36.7044 8.59517C36.5769 8.54363 36.4468 8.49308 36.3165 8.44244C36.2868 8.43093 36.2572 8.41941 36.2276 8.40788C36.2062 8.39958 36.185 8.39126 36.1637 8.38296C36.0254 8.32896 35.8875 8.27508 35.7399 8.22458L35.2372 8.04725C35.1793 8.02626 35.117 8.0065 35.0548 7.98675C35.0284 7.97839 35.002 7.97003 34.976 7.96158L34.7113 7.87789L34.4451 7.79521C34.388 7.77644 34.3269 7.75999 34.2657 7.74352C34.2328 7.73464 34.1998 7.72576 34.1674 7.71651Z" fill="url(#paint0_linear_2625_5517)"/>
</g>
<path fill-rule="evenodd" clip-rule="evenodd" d="M33.9223 24.3434C28.3225 27.3922 22.1715 24.298 19.8174 19.9675C16.9834 14.7588 18.7093 8.65498 23.9476 5.5199C23.9476 5.51992 23.9476 5.51995 23.9476 5.51997C29.4927 2.41489 35.8757 4.19912 38.799 9.66878C41.7378 15.1684 39.6275 21.5192 33.9223 24.3435C33.9223 24.3435 33.9223 24.3435 33.9223 24.3434Z" fill="#9AEF4F"/>
<path d="M23.9476 5.51953C22.5341 13.0609 25.5538 19.4167 32.2756 23.0668C32.8885 23.3996 33.6101 23.6113 33.9225 24.343C28.3227 27.3919 22.1715 24.2976 19.8174 19.9671C16.9834 14.7584 18.7093 8.65461 23.9476 5.51953Z" fill="#87D93F"/>
<path d="M72 33.223L73.8121 30.5516C75.4261 31.6829 77.1249 32.2689 78.5124 32.2689C79.7299 32.2689 80.2962 31.8464 80.2962 31.1922V31.1377C80.2962 30.2518 78.8521 29.9655 77.2099 29.4749C75.1146 28.8888 72.7503 27.9484 72.7503 25.1679V25.1134C72.7503 22.1967 75.1996 20.5611 78.2009 20.5611C80.098 20.5611 82.1508 21.1744 83.7647 22.2239L82.1508 25.0316C80.6784 24.2002 79.2061 23.6959 78.116 23.6959C77.0825 23.6959 76.5587 24.1184 76.5587 24.6909V24.7454C76.5587 25.5495 77.9744 25.9175 79.5883 26.4627C81.6694 27.1306 84.0903 28.0983 84.0903 30.7152V30.7697C84.0903 33.959 81.6128 35.4038 78.3849 35.4038C76.318 35.3901 73.982 34.7223 72 33.223Z" fill="#305FE6"/>
<path d="M84.5717 31.0014V30.9469C84.5717 27.8121 87.0492 26.3673 90.5744 26.3673C92.0751 26.3673 93.1652 26.6127 94.2128 26.9534V26.7217C94.2128 25.0316 93.1227 24.0912 91.0133 24.0912C89.3993 24.0912 88.2526 24.391 86.8935 24.8681L85.8317 21.7605C87.4739 21.0654 89.0879 20.602 91.622 20.602C93.9297 20.602 95.6002 21.1881 96.662 22.2103C97.7805 23.287 98.276 24.8681 98.276 26.7898V35.1175H94.1845V33.5638C93.151 34.6678 91.7353 35.3901 89.6825 35.3901C86.8793 35.3901 84.5717 33.8364 84.5717 31.0014ZM94.2836 30.0609V29.3386C93.5616 29.0115 92.613 28.807 91.5796 28.807C89.7674 28.807 88.6631 29.5021 88.6631 30.7833V30.8378C88.6631 31.9418 89.6117 32.5824 90.9708 32.5824C92.9528 32.5824 94.2836 31.533 94.2836 30.0609Z" fill="#305FE6"/>
<path d="M100.258 20.7655H104.491V22.7964C105.468 21.5969 106.714 20.4929 108.866 20.4929C112.065 20.4929 113.934 22.5238 113.934 25.8221V35.1175H109.701V27.1169C109.701 25.1952 108.752 24.2002 107.138 24.2002C105.524 24.2002 104.491 25.1952 104.491 27.1169V35.1312H100.258V20.7655Z" fill="#305FE6"/>
<path d="M115.265 27.9756V27.9211C115.265 23.1235 118.521 20.5066 122.046 20.5066C124.297 20.5066 125.685 21.5015 126.69 22.6464V15.5727H130.923V35.1175H126.69V33.0595C125.656 34.3952 124.24 35.3901 122.046 35.3901C118.563 35.3901 115.265 32.7732 115.265 27.9756ZM126.746 27.9756V27.9211C126.746 25.5359 125.104 23.9549 123.136 23.9549C121.154 23.9549 119.498 25.5087 119.498 27.9211V27.9756C119.498 30.3608 121.168 31.9418 123.136 31.9418C125.104 31.9418 126.746 30.3608 126.746 27.9756Z" fill="#305FE6"/>
<path d="M133.754 24.2547H131.999V20.9018H133.754V19.9887C133.754 18.4076 134.165 17.2627 134.943 16.5131C135.722 15.7635 136.869 15.3818 138.369 15.3818C139.7 15.3818 140.592 15.5454 141.371 15.7771V19.1572C140.762 18.9392 140.182 18.8029 139.445 18.8029C138.469 18.8029 137.916 19.2799 137.916 20.3567V20.9155H141.342V24.2411H137.973V35.1175H133.74V24.2547H133.754Z" fill="#305FE6"/>
<path d="M141.994 20.7655H146.227V23.655C147.09 21.6787 148.478 20.3839 150.984 20.4929V24.7454H150.757C147.954 24.7454 146.227 26.3809 146.227 29.802V35.1039H141.994V20.7655Z" fill="#305FE6"/>
<path d="M152.144 22.6328H156.378V35.1312H152.144V22.6328Z" fill="#305FE6"/>
<path d="M157.963 28.0301V27.9756C157.963 23.8731 160.993 20.5066 165.339 20.5066C170.322 20.5066 172.602 24.2275 172.602 28.3027C172.602 28.6298 172.574 28.9978 172.545 29.3795H162.168C162.578 31.2331 163.923 32.1872 165.806 32.1872C167.222 32.1872 168.256 31.7647 169.416 30.7152L171.837 32.7732C170.45 34.4361 168.44 35.4583 165.75 35.4583C161.276 35.4447 157.963 32.4189 157.963 28.0301ZM168.482 26.8307C168.227 25.0044 167.123 23.7777 165.339 23.7777C163.584 23.7777 162.451 24.9771 162.111 26.8307H168.482Z" fill="#305FE6"/>
<path d="M174.074 20.7655H178.307V22.7964C179.284 21.5969 180.53 20.4929 182.682 20.4929C185.881 20.4929 187.75 22.5238 187.75 25.8221V35.1175H183.517V27.1169C183.517 25.1952 182.569 24.2002 180.955 24.2002C179.341 24.2002 178.307 25.1952 178.307 27.1169V35.1312H174.074V20.7655Z" fill="#305FE6"/>
<path d="M189.067 27.9756V27.9211C189.067 23.1235 192.323 20.5066 195.848 20.5066C198.099 20.5066 199.487 21.5015 200.492 22.6464V15.5727H204.725V35.1175H200.492V33.0595C199.458 34.3952 198.042 35.3901 195.848 35.3901C192.365 35.3901 189.067 32.7732 189.067 27.9756ZM200.548 27.9756V27.9211C200.548 25.5359 198.906 23.9549 196.938 23.9549C194.956 23.9549 193.3 25.5087 193.3 27.9211V27.9756C193.3 30.3608 194.97 31.9418 196.938 31.9418C198.906 31.9418 200.548 30.3608 200.548 27.9756Z" fill="#305FE6"/>
<path d="M205.673 33.223L207.485 30.5516C209.099 31.6829 210.798 32.2689 212.186 32.2689C213.403 32.2689 213.969 31.8464 213.969 31.1922V31.1377C213.969 30.2518 212.525 29.9655 210.883 29.4749C208.802 28.8888 206.438 27.9484 206.438 25.1679V25.1134C206.438 22.1967 208.887 20.5611 211.888 20.5611C213.785 20.5611 215.838 21.1744 217.452 22.2239L215.838 25.0316C214.366 24.2002 212.894 23.6959 211.803 23.6959C210.77 23.6959 210.246 24.1184 210.246 24.6909V24.7454C210.246 25.5495 211.662 25.9175 213.276 26.4627C215.357 27.1306 217.778 28.0983 217.778 30.7152V30.7697C217.778 33.959 215.3 35.4038 212.072 35.4038C209.977 35.3901 207.641 34.7223 205.673 33.223Z" fill="#305FE6"/>
<path fill-rule="evenodd" clip-rule="evenodd" d="M156.954 16.624C156.114 15.057 154.28 14.5459 152.687 15.4355C152.687 15.4355 152.687 15.4355 152.687 15.4355C151.182 16.3337 150.686 18.0822 151.5 19.5743C152.177 20.8149 153.944 21.7013 155.553 20.8279C155.553 20.8278 155.553 20.8278 155.553 20.8278C157.192 20.0187 157.798 18.1994 156.954 16.624Z" fill="#9AEF4F"/>
<path d="M152.687 15.4355C152.281 17.5959 153.148 19.4167 155.079 20.4624C155.256 20.5577 155.463 20.6183 155.553 20.8279C153.944 21.7014 152.177 20.815 151.5 19.5744C150.686 18.0822 151.182 16.3337 152.687 15.4355Z" fill="#87D93F"/>
<defs>
<linearGradient id="paint0_linear_2625_5517" x1="21.0541" y1="25.2299" x2="70.4693" y2="25.2299" gradientUnits="userSpaceOnUse">
<stop offset="0.2" stop-color="white"/>
<stop offset="1" stop-color="white" stop-opacity="0"/>
</linearGradient>
</defs>
</svg>
