<svg width="16" height="16" viewBox="0 0 16 16" fill="none" xmlns="http://www.w3.org/2000/svg">
<path fill-rule="evenodd" clip-rule="evenodd" d="M0.5 8C0.5 3.85786 3.85786 0.5 8 0.5C12.1421 0.5 15.5 3.85786 15.5 8V9C15.5 9.49302 15.3568 9.95412 15.1095 10.3422C14.6665 11.0372 13.8875 11.5 13 11.5C12.0285 11.5 11.1864 10.9458 10.7726 10.1363C10.1326 10.9658 9.12867 11.5 8 11.5C6.067 11.5 4.5 9.933 4.5 8C4.5 6.067 6.067 4.5 8 4.5C9.933 4.5 11.5 6.067 11.5 8V9C11.5 9.82843 12.1716 10.5 13 10.5C13.5316 10.5 13.9991 10.2238 14.2662 9.80471C14.4142 9.57247 14.5 9.29702 14.5 9V8C14.5 4.41015 11.5899 1.5 8 1.5C4.41015 1.5 1.5 4.41015 1.5 8C1.5 11.5899 4.41015 14.5 8 14.5C9.38168 14.5 10.6613 14.0695 11.714 13.3352L12.286 14.1554C11.071 15.0029 9.59282 15.5 8 15.5C3.85786 15.5 0.5 12.1421 0.5 8ZM10.5 8C10.5 6.61929 9.38071 5.5 8 5.5C6.61929 5.5 5.5 6.61929 5.5 8C5.5 9.38071 6.61929 10.5 8 10.5C9.38071 10.5 10.5 9.38071 10.5 8Z" fill="white"/>
</svg>
