<svg width="15" height="16" viewBox="0 0 15 16" fill="none" xmlns="http://www.w3.org/2000/svg">
<path fill-rule="evenodd" clip-rule="evenodd" d="M2.49683 7.16561C3.56131 8.34836 5.18617 9.50009 7.50018 9.50009C9.81419 9.50009 11.4391 8.34836 12.5035 7.16561C13.0361 6.57384 13.4221 5.98038 13.6746 5.53483C13.8005 5.31256 13.8925 5.12847 13.9522 5.00172C13.9821 4.93839 14.0038 4.88949 14.0177 4.85744C14.0247 4.84142 14.0296 4.82962 14.0327 4.82234L14.0358 4.81486L14.0361 4.81406C14.036 4.81422 14.036 4.8144 14.5002 5.00009C14.9644 5.18579 14.9643 5.186 14.9643 5.18624L14.964 5.1868L14.9634 5.18827L14.9617 5.19258L14.9559 5.20653C14.9511 5.21818 14.9442 5.23445 14.9353 5.25505C14.9174 5.29624 14.8913 5.35476 14.8568 5.42815C14.7876 5.57483 14.6842 5.78138 14.5446 6.02785C14.2658 6.5198 13.8392 7.17634 13.2468 7.83457C13.064 8.03777 12.8647 8.24171 12.6485 8.44132L14.3537 10.1465L13.6466 10.8536L11.8718 9.07881C10.864 9.80906 9.58272 10.3832 8.00018 10.4843L8.00019 12.5001L7.00019 12.5001L7.00018 10.4843C5.41765 10.3832 4.1364 9.80907 3.12858 9.07882L1.35375 10.8536L0.646641 10.1465L2.35185 8.44133C2.13571 8.24171 1.93642 8.03777 1.75354 7.83457C1.16113 7.17634 0.734576 6.5198 0.455806 6.02785C0.316139 5.78138 0.212786 5.57483 0.143634 5.42814C0.109039 5.35476 0.0829463 5.29624 0.0650978 5.25505C0.0561719 5.23445 0.0493025 5.21817 0.0444575 5.20653L0.0387023 5.19257L0.0369546 5.18827L0.0363618 5.1868L0.0361355 5.18623C0.0360418 5.186 0.0359558 5.18579 0.500195 5.00009C0.964433 4.8144 0.964363 4.81422 0.9643 4.81406L0.964211 4.81384L0.964624 4.81486L0.967712 4.82234C0.97074 4.82962 0.975711 4.84142 0.982654 4.85744C0.996544 4.88949 1.0183 4.93839 1.04816 5.00173C1.10791 5.12848 1.19987 5.31256 1.32583 5.53484C1.57831 5.98039 1.96425 6.57385 2.49683 7.16561ZM0.964168 4.81374C0.964152 4.8137 0.964167 4.81373 0.964211 4.81384L0.964168 4.81374Z" fill="#BBC2D0"/>
</svg>
