<svg width="15" height="15" viewBox="0 0 15 15" fill="none" xmlns="http://www.w3.org/2000/svg">
<path fill-rule="evenodd" clip-rule="evenodd" d="M7.5 4.20711L6.18198 2.88909L6.88909 2.18198L7.5 2.79289L8.11091 2.18198C8.86772 1.42517 9.89418 1 10.9645 1C13.1932 1 15 2.80677 15 5.03553C15 6.10582 14.5748 7.13228 13.818 7.88909L7.85355 13.8536C7.65829 14.0488 7.34171 14.0488 7.14645 13.8536L1.18198 7.88909C0.42517 7.13228 0 6.10582 0 5.03553C0 2.80677 1.80677 1 4.03553 1C5.10582 1 6.13228 1.42517 6.88909 2.18198L6.18198 2.88909C5.61271 2.31981 4.84061 2 4.03553 2C2.35905 2 1 3.35905 1 5.03553C1 5.84061 1.31981 6.61271 1.88909 7.18198L7.5 12.7929L13.1109 7.18198C13.6802 6.61271 14 5.84061 14 5.03553C14 3.35905 12.6409 2 10.9645 2C10.1594 2 9.38729 2.31981 8.81802 2.88909L7.5 4.20711Z" fill="#305FE6"/>
</svg>
