<svg width="13" height="16" viewBox="0 0 13 16" fill="none" xmlns="http://www.w3.org/2000/svg">
<path d="M5 6.99606C5 6.16924 5.67183 5.49738 6.5 5.49738C7.32817 5.49738 8 6.16924 8 6.99606C8 7.8229 7.32816 8.49478 6.5 8.49478C5.67184 8.49478 5 7.8229 5 6.99606Z" fill="white"/>
<path fill-rule="evenodd" clip-rule="evenodd" d="M0 6.99606C0 3.40877 2.91117 0.5 6.5 0.5C10.0888 0.5 13 3.40877 13 6.99606C13 9.6701 11.6617 11.7886 10.2284 13.2209C9.51016 13.9387 8.75773 14.4953 8.11325 14.8751C7.79117 15.0649 7.49017 15.2141 7.22849 15.3174C6.98144 15.4149 6.72211 15.4909 6.5 15.4909C6.27789 15.4909 6.01856 15.4149 5.77151 15.3174C5.50983 15.2141 5.20883 15.0649 4.88675 14.8751C4.24227 14.4953 3.48984 13.9387 2.77156 13.2209C1.33829 11.7886 0 9.6701 0 6.99606ZM6.5 4.49738C5.12017 4.49738 4 5.61633 4 6.99606C4 8.37579 5.12016 9.49478 6.5 9.49478C7.87984 9.49478 9 8.37579 9 6.99606C9 5.61633 7.87983 4.49738 6.5 4.49738Z" fill="white"/>
</svg>
