<svg width="127" height="120" viewBox="0 0 127 120" fill="none" xmlns="http://www.w3.org/2000/svg">
<mask id="mask0_325_970" style="mask-type:alpha" maskUnits="userSpaceOnUse" x="0" y="4" width="127" height="117">
<path d="M112.63 4.56152H14.3698C6.43314 4.56152 0 11.3281 0 19.6759V81.8942C0 90.242 6.43314 97.0099 14.3698 97.0099H29.7342C33.544 97.0099 37.2001 98.6021 39.8941 101.436L53.3373 115.572C58.95 121.476 68.0473 121.476 73.6599 115.572L87.1045 101.43C89.7986 98.5966 93.4533 97.0045 97.2644 97.0045H112.63C120.567 97.0045 127 90.2366 127 81.8887V19.6705C127 11.3281 120.567 4.56152 112.63 4.56152Z" fill="#F2F2F2"/>
</mask>
<g mask="url(#mask0_325_970)">
<path d="M138.413 -26.7034L-11.9395 -14.8153V124.036H138.413V-26.7034Z" fill="#16D3DC"/>
<path d="M63.4404 82.2344L157.325 75.0656V-6.47412L63.4404 0.693864V82.2344Z" fill="#18BECB"/>
<path d="M63.5157 136.032C62.8844 136.048 62.2517 136.078 61.6204 136.078C37.2884 136.078 12.9559 136.078 -11.377 136.078V74.9089C-8.81773 73.9713 -6.35268 72.7951 -4.0145 71.3958C3.53845 66.8001 11.554 65.9592 19.9628 68.6028C20.2349 68.6898 20.5288 68.7278 20.8119 68.7889C23.5427 69.9531 25.9986 71.6417 28.6478 72.9459C34.3938 75.7742 40.2133 75.8503 46.0042 72.9948C46.856 72.5343 47.7404 72.1281 48.5527 71.605C52.9994 68.6983 58.1967 67.145 63.5117 67.1343C63.513 78.6963 63.5144 124.463 63.5157 136.032Z" fill="#FDDA41"/>
<path d="M63.4062 136.033C64.0376 136.049 64.6703 136.079 65.3016 136.079C89.6345 136.079 113.967 136.079 138.299 136.079V74.9093C135.74 73.9718 133.275 72.7956 130.936 71.3963C123.382 66.8006 115.368 65.9624 106.959 68.5965C106.687 68.6834 106.393 68.7215 106.11 68.7826C103.379 69.9468 100.923 71.6354 98.2728 72.9395C92.5282 75.7679 86.7073 75.844 80.9178 72.9885C80.066 72.5279 79.1816 72.1217 78.3693 71.5987C73.9214 68.6912 68.7226 67.1379 63.4062 67.128C63.4062 78.6968 63.4062 124.464 63.4062 136.033Z" fill="#FBBE29"/>
<path d="M63.4696 10.1351L61.9239 9.71943L57.2256 8.44653C53.7894 7.54051 50.1928 7.41982 46.7034 8.09345C43.214 8.76708 39.9217 10.2177 37.0715 12.3373C34.2213 14.4569 31.8865 17.191 30.2409 20.3361C28.5954 23.4811 27.6813 26.9562 27.5669 30.5027C27.4525 34.0492 28.1406 37.5758 29.5801 40.8201C31.0195 44.0644 33.1732 46.9428 35.8809 49.2411C38.5886 51.5395 41.7806 53.1986 45.2193 54.095C48.6581 54.9915 52.255 55.1021 55.7425 54.4187L56.2404 54.3209C56.2698 54.3154 56.2977 54.3092 56.3256 54.3029C56.3805 54.2906 56.4353 54.2783 56.5003 54.272L56.7874 54.2381L57.0772 54.2027C57.1125 54.1994 57.1466 54.1944 57.1809 54.1895C57.243 54.1805 57.3055 54.1715 57.3766 54.1715L58.0175 54.1335C58.2071 54.1167 58.4116 54.1158 58.616 54.1148C58.6433 54.1147 58.6705 54.1146 58.6978 54.1144C58.7997 54.1138 58.9013 54.1122 59.0035 54.1105C59.1333 54.1084 59.2639 54.1063 59.3971 54.1063L60.1319 54.128L60.502 54.1375L60.8857 54.162C63.0938 54.3036 65.2921 54.5703 67.4699 54.9608C69.7775 55.3615 72.1627 55.8737 74.5711 56.4782C76.9794 57.0827 79.4286 57.7674 81.8778 58.5159C86.7842 60.0157 91.7316 61.7572 96.6489 63.6958C101.566 65.6343 106.467 67.7508 111.313 70.0358C116.158 72.3207 120.953 74.7755 125.659 77.3947C126.101 77.6406 126.543 77.8882 126.983 78.1375V54.2283C126.13 53.3622 125.271 52.5011 124.405 51.6447C120.263 47.5476 115.973 43.5781 111.514 39.7132C107.055 35.8484 102.43 32.1153 97.5633 28.5126C95.1277 26.7126 92.6309 24.9493 90.0403 23.2295C87.4496 21.5096 84.7732 19.8278 81.9472 18.2167C79.1211 16.6055 76.1535 15.0514 72.9111 13.5979L72.3042 13.3262L71.6783 13.0613L70.4198 12.5315C70.0705 12.3909 69.7141 12.253 69.3571 12.115C69.2759 12.0836 69.1947 12.0521 69.1135 12.0207C69.0551 11.998 68.9968 11.9754 68.9385 11.9527C68.5597 11.8054 68.1818 11.6585 67.7774 11.5208L66.4004 11.0371C66.2418 10.9799 66.071 10.926 65.9005 10.8722C65.8282 10.8493 65.756 10.8265 65.6847 10.8035L64.9595 10.5753L64.2302 10.3498C64.0737 10.2986 63.9063 10.2537 63.7389 10.2088C63.6486 10.1846 63.5582 10.1603 63.4696 10.1351Z" fill="url(#paint0_linear_325_970)"/>
</g>
<path fill-rule="evenodd" clip-rule="evenodd" d="M76.1584 15.4604C68.1497 0.542931 50.6626 -4.32313 35.471 4.14561C35.471 4.1457 35.471 4.1458 35.471 4.14589C21.1206 12.6962 16.3925 29.3428 24.1563 43.5482C30.6058 55.3588 47.4574 63.7977 62.7987 55.4824C62.7986 55.4824 62.7986 55.4823 62.7986 55.4823C78.4281 47.7796 84.2093 30.4592 76.1584 15.4604Z" fill="#9AEF4F"/>
<path d="M35.4714 4.14551C31.599 24.7128 39.8718 42.047 58.2868 52.0019C59.9658 52.9094 61.9428 53.4867 62.7987 55.4823C47.4574 63.7976 30.6058 55.3587 24.1563 43.5481C16.3924 29.3425 21.1207 12.6958 35.4714 4.14551Z" fill="#87D93F"/>
<defs>
<linearGradient id="paint0_linear_325_970" x1="27.5444" y1="57.8992" x2="162.922" y2="57.8992" gradientUnits="userSpaceOnUse">
<stop offset="0.2" stop-color="white"/>
<stop offset="1" stop-color="white" stop-opacity="0"/>
</linearGradient>
</defs>
</svg>
