<svg width="160" height="35" viewBox="0 0 160 35" fill="none" xmlns="http://www.w3.org/2000/svg">
<path d="M7 25.2228L8.81214 22.5514C10.4261 23.6826 12.1249 24.2687 13.5124 24.2687C14.7299 24.2687 15.2962 23.8462 15.2962 23.192V23.1374C15.2962 22.2515 13.8521 21.9653 12.2099 21.4746C10.1146 20.8886 7.75034 19.9481 7.75034 17.1677V17.1131C7.75034 14.1964 10.1996 12.5609 13.2009 12.5609C15.098 12.5609 17.1508 13.1742 18.7647 14.2237L17.1508 17.0314C15.6784 16.2 14.2061 15.6957 13.116 15.6957C12.0825 15.6957 11.5587 16.1182 11.5587 16.6906V16.7451C11.5587 17.5493 12.9744 17.9173 14.5883 18.4625C16.6694 19.1303 19.0903 20.098 19.0903 22.7149V22.7694C19.0903 25.9588 16.6128 27.4035 13.3849 27.4035C11.318 27.3899 8.98202 26.722 7 25.2228Z" fill="#305FE6"/>
<path d="M19.5717 23.0012V22.9466C19.5717 19.8118 22.0492 18.3671 25.5744 18.3671C27.0751 18.3671 28.1652 18.6124 29.2128 18.9531V18.7214C29.2128 17.0314 28.1227 16.0909 26.0133 16.0909C24.3993 16.0909 23.2526 16.3908 21.8935 16.8678L20.8317 13.7603C22.4739 13.0651 24.0879 12.6017 26.622 12.6017C28.9297 12.6017 30.6002 13.1878 31.662 14.21C32.7805 15.2868 33.276 16.8678 33.276 18.7896V27.1173H29.1845V25.5635C28.151 26.6675 26.7353 27.3899 24.6825 27.3899C21.8793 27.3899 19.5717 25.8361 19.5717 23.0012ZM29.2836 22.0607V21.3383C28.5616 21.0112 27.613 20.8068 26.5796 20.8068C24.7674 20.8068 23.6631 21.5019 23.6631 22.7831V22.8376C23.6631 23.9416 24.6117 24.5822 25.9708 24.5822C27.9528 24.5822 29.2836 23.5327 29.2836 22.0607Z" fill="#305FE6"/>
<path d="M35.258 12.7653H39.491V14.7961C40.4679 13.5967 41.7137 12.4927 43.8656 12.4927C47.0652 12.4927 48.9339 14.5235 48.9339 17.8219V27.1173H44.7009V19.1167C44.7009 17.1949 43.7524 16.2 42.1384 16.2C40.5245 16.2 39.491 17.1949 39.491 19.1167V27.1309H35.258V12.7653Z" fill="#305FE6"/>
<path d="M50.2647 19.9754V19.9209C50.2647 15.1232 53.5209 12.5063 57.0461 12.5063C59.2971 12.5063 60.6845 13.5013 61.6897 14.6462V7.57241H65.9227V27.1173H61.6897V25.0592C60.6562 26.3949 59.2405 27.3899 57.0461 27.3899C53.5634 27.3899 50.2647 24.773 50.2647 19.9754ZM61.7463 19.9754V19.9209C61.7463 17.5357 60.1041 15.9546 58.1362 15.9546C56.1542 15.9546 54.4978 17.5084 54.4978 19.9209V19.9754C54.4978 22.3606 56.1683 23.9416 58.1362 23.9416C60.1041 23.9416 61.7463 22.3606 61.7463 19.9754Z" fill="#305FE6"/>
<path d="M68.7542 16.2545H66.9987V12.9016H68.7542V11.9884C68.7542 10.4074 69.1647 9.26248 69.9434 8.51285C70.722 7.76322 71.8688 7.38159 73.3694 7.38159C74.7002 7.38159 75.5921 7.54515 76.3708 7.77685V11.157C75.762 10.9389 75.1816 10.8026 74.4454 10.8026C73.4686 10.8026 72.9164 11.2797 72.9164 12.3564V12.9152H76.3425V16.2409H72.973V27.1173H68.74V16.2545H68.7542Z" fill="#305FE6"/>
<path d="M76.9937 12.7653H81.2267V15.6548C82.0903 13.6785 83.4778 12.3837 85.9836 12.4927V16.7451H85.7571C82.9539 16.7451 81.2267 18.3807 81.2267 21.8017V27.1037H76.9937V12.7653Z" fill="#305FE6"/>
<path d="M87.1445 14.6326H91.3775V27.1309H87.1445V14.6326Z" fill="#305FE6"/>
<path d="M92.9632 20.0299V19.9754C92.9632 15.8729 95.9928 12.5063 100.339 12.5063C105.322 12.5063 107.602 16.2272 107.602 20.3025C107.602 20.6296 107.574 20.9976 107.545 21.3792H97.1679C97.5784 23.2329 98.9234 24.1869 100.806 24.1869C102.222 24.1869 103.256 23.7644 104.416 22.7149L106.837 24.773C105.45 26.4358 103.44 27.458 100.75 27.458C96.276 27.4444 92.9632 24.4186 92.9632 20.0299ZM103.482 18.8305C103.227 17.0041 102.123 15.7774 100.339 15.7774C98.5836 15.7774 97.451 16.9769 97.1113 18.8305H103.482Z" fill="#305FE6"/>
<path d="M109.074 12.7653H113.307V14.7961C114.284 13.5967 115.53 12.4927 117.682 12.4927C120.881 12.4927 122.75 14.5235 122.75 17.8219V27.1173H118.517V19.1167C118.517 17.1949 117.569 16.2 115.955 16.2C114.341 16.2 113.307 17.1949 113.307 19.1167V27.1309H109.074V12.7653Z" fill="#305FE6"/>
<path d="M124.067 19.9754V19.9209C124.067 15.1232 127.323 12.5063 130.848 12.5063C133.099 12.5063 134.487 13.5013 135.492 14.6462V7.57241H139.725V27.1173H135.492V25.0592C134.458 26.3949 133.042 27.3899 130.848 27.3899C127.365 27.3899 124.067 24.773 124.067 19.9754ZM135.548 19.9754V19.9209C135.548 17.5357 133.906 15.9546 131.938 15.9546C129.956 15.9546 128.3 17.5084 128.3 19.9209V19.9754C128.3 22.3606 129.97 23.9416 131.938 23.9416C133.906 23.9416 135.548 22.3606 135.548 19.9754Z" fill="#305FE6"/>
<path d="M140.673 25.2228L142.485 22.5514C144.099 23.6826 145.798 24.2687 147.186 24.2687C148.403 24.2687 148.969 23.8462 148.969 23.192V23.1374C148.969 22.2515 147.525 21.9653 145.883 21.4746C143.802 20.8886 141.438 19.9481 141.438 17.1677V17.1131C141.438 14.1964 143.887 12.5609 146.888 12.5609C148.785 12.5609 150.838 13.1742 152.452 14.2237L150.838 17.0314C149.366 16.2 147.894 15.6957 146.803 15.6957C145.77 15.6957 145.246 16.1182 145.246 16.6906V16.7451C145.246 17.5493 146.662 17.9173 148.276 18.4625C150.357 19.1303 152.778 20.098 152.778 22.7149V22.7694C152.778 25.9588 150.3 27.4035 147.072 27.4035C144.977 27.3899 142.641 26.722 140.673 25.2228Z" fill="#305FE6"/>
<path fill-rule="evenodd" clip-rule="evenodd" d="M91.9536 8.62395C91.1137 7.05703 89.2798 6.5459 87.6867 7.43545C87.6867 7.43549 87.6867 7.43552 87.6867 7.43555C86.1818 8.33369 85.686 10.0822 86.5002 11.5743C87.1765 12.8149 88.9438 13.7013 90.5527 12.8279C90.5527 12.8278 90.5527 12.8278 90.5526 12.8278C92.1917 12.0187 92.7979 10.1994 91.9536 8.62395Z" fill="#9AEF4F"/>
<path d="M87.6868 7.43555C87.2807 9.59593 88.1483 11.4167 90.0795 12.4624C90.2556 12.5577 90.4629 12.6183 90.5527 12.8279C88.9438 13.7014 87.1765 12.815 86.5002 11.5744C85.6859 10.0822 86.1818 8.33366 87.6868 7.43555Z" fill="#87D93F"/>
</svg>
