<svg width="15" height="15" viewBox="0 0 15 15" fill="none" xmlns="http://www.w3.org/2000/svg">
<path fill-rule="evenodd" clip-rule="evenodd" d="M15 7.5C15 11.6421 11.6421 15 7.5 15C3.35786 15 0 11.6421 0 7.5C0 3.35786 3.35786 0 7.5 0C11.6421 0 15 3.35786 15 7.5ZM10.5227 5.22725C10.7424 5.44692 10.7424 5.80308 10.5227 6.02273L6.77273 9.77273C6.55305 9.9924 6.19695 9.9924 5.97725 9.77273L4.47725 8.27273C4.25758 8.05305 4.25758 7.69695 4.47725 7.47728C4.69692 7.2576 5.05308 7.2576 5.27275 7.47728L6.375 8.57948L8.0511 6.90338L9.72727 5.22725C9.94695 5.00759 10.3031 5.00759 10.5227 5.22725Z" fill="#305FE6"/>
</svg>
