<svg width="28" height="30" viewBox="0 0 28 30" fill="none" xmlns="http://www.w3.org/2000/svg">
<path fill-rule="evenodd" clip-rule="evenodd" d="M2 12C0.895431 12 0 12.8954 0 14V22C0 23.1046 0.89543 24 2 24H3C4.10457 24 5 23.1046 5 22V14C5 12.8954 4.10457 12 3 12H2ZM1.75 17.8438C1.61193 17.8438 1.5 17.9557 1.5 18.0938C1.5 18.2318 1.61193 18.3438 1.75 18.3438H3.25C3.38807 18.3438 3.5 18.2318 3.5 18.0938C3.5 17.9557 3.38807 17.8438 3.25 17.8438H1.75ZM1.5 21.3438C1.5 21.2057 1.61193 21.0938 1.75 21.0938H3.25C3.38807 21.0938 3.5 21.2057 3.5 21.3438C3.5 21.4818 3.38807 21.5938 3.25 21.5938H1.75C1.61193 21.5938 1.5 21.4818 1.5 21.3438ZM1.75 14.5938C1.61193 14.5938 1.5 14.7057 1.5 14.8438C1.5 14.9818 1.61193 15.0938 1.75 15.0938H3.25C3.38807 15.0938 3.5 14.9818 3.5 14.8438C3.5 14.7057 3.38807 14.5938 3.25 14.5938H1.75Z" fill="#305FE6"/>
<path fill-rule="evenodd" clip-rule="evenodd" d="M24 12C22.8954 12 22 12.8954 22 14V22C22 23.1046 22.8954 24 24 24H25C26.1046 24 27 23.1046 27 22V14C27 12.8954 26.1046 12 25 12H24ZM23.75 17.8438C23.6119 17.8438 23.5 17.9557 23.5 18.0938C23.5 18.2318 23.6119 18.3438 23.75 18.3438H25.25C25.3881 18.3438 25.5 18.2318 25.5 18.0938C25.5 17.9557 25.3881 17.8438 25.25 17.8438H23.75ZM23.5 21.3438C23.5 21.2057 23.6119 21.0938 23.75 21.0938H25.25C25.3881 21.0938 25.5 21.2057 25.5 21.3438C25.5 21.4818 25.3881 21.5938 25.25 21.5938H23.75C23.6119 21.5938 23.5 21.4818 23.5 21.3438ZM23.75 14.5938C23.6119 14.5938 23.5 14.7057 23.5 14.8438C23.5 14.9818 23.6119 15.0938 23.75 15.0938H25.25C25.3881 15.0938 25.5 14.9818 25.5 14.8438C25.5 14.7057 25.3881 14.5938 25.25 14.5938H23.75Z" fill="#305FE6"/>
<path fill-rule="evenodd" clip-rule="evenodd" d="M8 2C6.89543 2 6 2.89543 6 4V26C6 27.1046 6.89543 28 8 28H19C20.1046 28 21 27.1046 21 26V4C21 2.89543 20.1046 2 19 2H8ZM13.5901 14.0838L13.5979 14.91H12.6079L12.6153 14.061C12.2545 14.0114 11.9254 13.9144 11.6279 13.77C11.1745 13.55 10.7879 13.2267 10.4679 12.8L11.2379 11.79C11.5779 12.23 11.9079 12.5367 12.2279 12.71C12.3542 12.7784 12.4868 12.8334 12.6256 12.8748L12.6422 10.9792C12.2997 10.8876 12.0049 10.7712 11.7579 10.63C11.4379 10.4367 11.1979 10.1967 11.0379 9.91C10.8779 9.62333 10.7979 9.28667 10.7979 8.9C10.7979 8.60667 10.8612 8.33667 10.9879 8.09C11.1212 7.84333 11.3012 7.63 11.5279 7.45C11.7545 7.27 12.0179 7.13 12.3179 7.03C12.5227 6.96173 12.7383 6.91676 12.9649 6.8951L12.9579 6.16H13.9479L13.941 6.93255C14.228 6.98123 14.4936 7.06371 14.7379 7.18C15.1579 7.37333 15.5045 7.66333 15.7779 8.05L15.0379 8.95C14.8112 8.64333 14.5479 8.41333 14.2479 8.26C14.1453 8.20406 14.0395 8.1579 13.9304 8.12152L13.9141 9.96042C14.1038 10.0151 14.2817 10.0782 14.4479 10.15C14.7412 10.27 14.9912 10.4167 15.1979 10.59C15.4045 10.7567 15.5612 10.95 15.6679 11.17C15.7745 11.3833 15.8279 11.6233 15.8279 11.89C15.8279 12.35 15.7179 12.7467 15.4979 13.08C15.2845 13.4067 14.9812 13.66 14.5879 13.84C14.2928 13.97 13.9602 14.0513 13.5901 14.0838ZM12.9921 9.73063C12.9494 9.71745 12.908 9.7039 12.8679 9.69C12.6945 9.63 12.5512 9.56 12.4379 9.48C12.3312 9.4 12.2479 9.31 12.1879 9.21C12.1279 9.10333 12.0979 8.98333 12.0979 8.85C12.0979 8.67667 12.1479 8.53 12.2479 8.41C12.3479 8.28333 12.4845 8.18667 12.6579 8.12C12.7551 8.08398 12.8611 8.05769 12.9759 8.04113L12.9921 9.73063ZM13.9279 12.87C13.8186 12.909 13.7024 12.9366 13.5794 12.9528L13.563 11.2036C13.7049 11.2475 13.8332 11.2997 13.9479 11.36C14.0745 11.4267 14.1812 11.5 14.2679 11.58C14.3545 11.6533 14.4179 11.74 14.4579 11.84C14.5045 11.9333 14.5279 12.0367 14.5279 12.15C14.5279 12.31 14.4745 12.4533 14.3679 12.58C14.2612 12.7 14.1145 12.7967 13.9279 12.87ZM9.25 18.6113C9.25 18.3352 9.47386 18.1113 9.75 18.1113H17.25C17.5261 18.1113 17.75 18.3352 17.75 18.6113C17.75 18.8875 17.5261 19.1113 17.25 19.1113H9.75C9.47386 19.1113 9.25 18.8875 9.25 18.6113ZM9.75 21C9.47386 21 9.25 21.2239 9.25 21.5C9.25 21.7761 9.47386 22 9.75 22H17.25C17.5261 22 17.75 21.7761 17.75 21.5C17.75 21.2239 17.5261 21 17.25 21H9.75Z" fill="#305FE6"/>
</svg>
