<svg width="24" height="18" viewBox="0 0 24 18" fill="none" xmlns="http://www.w3.org/2000/svg">
<rect x="7.25" y="2.25" width="9.5" height="13.5" rx="1.75" fill="#305FE6" stroke="#16D3DC" stroke-width="0.5"/>
<rect x="18.25" y="7.25" width="4.5" height="7.5" rx="1.75" fill="#305FE6" stroke="#16D3DC" stroke-width="0.5"/>
<path d="M12.0122 9.06C11.6522 9.06 11.3362 8.994 11.0642 8.862C10.7922 8.73 10.5602 8.536 10.3682 8.28L10.8302 7.674C11.0342 7.938 11.2322 8.122 11.4242 8.226C11.6162 8.33 11.8322 8.382 12.0722 8.382C12.2082 8.382 12.3322 8.362 12.4442 8.322C12.5562 8.278 12.6442 8.22 12.7082 8.148C12.7722 8.072 12.8042 7.986 12.8042 7.89C12.8042 7.822 12.7902 7.76 12.7622 7.704C12.7382 7.644 12.7002 7.592 12.6482 7.548C12.5962 7.5 12.5322 7.456 12.4562 7.416C12.3802 7.376 12.2942 7.342 12.1982 7.314C12.1022 7.286 11.9962 7.26 11.8802 7.236C11.5842 7.176 11.3382 7.09 11.1422 6.978C10.9502 6.862 10.8062 6.718 10.7102 6.546C10.6142 6.374 10.5662 6.172 10.5662 5.94C10.5662 5.764 10.6042 5.602 10.6802 5.454C10.7602 5.306 10.8682 5.178 11.0042 5.07C11.1402 4.962 11.2982 4.878 11.4782 4.818C11.6582 4.758 11.8522 4.728 12.0602 4.728C12.3882 4.728 12.6782 4.788 12.9302 4.908C13.1822 5.024 13.3902 5.198 13.5542 5.43L13.1102 5.97C12.9742 5.786 12.8162 5.648 12.6362 5.556C12.4602 5.46 12.2682 5.412 12.0602 5.412C11.9162 5.412 11.7902 5.432 11.6822 5.472C11.5782 5.512 11.4962 5.57 11.4362 5.646C11.3762 5.718 11.3462 5.806 11.3462 5.91C11.3462 5.99 11.3642 6.062 11.4002 6.126C11.4362 6.186 11.4862 6.24 11.5502 6.288C11.6182 6.336 11.7042 6.378 11.8082 6.414C11.9122 6.45 12.0302 6.482 12.1622 6.51C12.3822 6.554 12.5802 6.614 12.7562 6.69C12.9322 6.762 13.0822 6.85 13.2062 6.954C13.3302 7.054 13.4242 7.17 13.4882 7.302C13.5522 7.43 13.5842 7.574 13.5842 7.734C13.5842 8.01 13.5182 8.248 13.3862 8.448C13.2582 8.644 13.0762 8.796 12.8402 8.904C12.6042 9.008 12.3282 9.06 12.0122 9.06ZM11.6522 9.546L11.6762 6.798L12.2222 6.996L12.2462 9.546H11.6522ZM12.4322 6.996L11.8862 6.798L11.8622 4.296H12.4562L12.4322 6.996Z" fill="#16D3DC"/>
<path d="M10 11.5H14" stroke="#16D3DC" stroke-linecap="round"/>
<path d="M19.75 10.75H21.25" stroke="#16D3DC" stroke-width="0.5" stroke-linecap="round"/>
<path d="M19.75 12.75H21.25" stroke="#16D3DC" stroke-width="0.5" stroke-linecap="round"/>
<rect x="1.25" y="7.25" width="4.5" height="7.5" rx="1.75" fill="#305FE6" stroke="#16D3DC" stroke-width="0.5"/>
<path d="M2.75 10.75H4.25" stroke="#16D3DC" stroke-width="0.5" stroke-linecap="round"/>
<path d="M2.75 12.75H4.25" stroke="#16D3DC" stroke-width="0.5" stroke-linecap="round"/>
<path d="M10 13.5H14" stroke="#16D3DC" stroke-linecap="round"/>
</svg>
