<svg width="26" height="29" viewBox="0 0 26 29" fill="none" xmlns="http://www.w3.org/2000/svg">
<path d="M18.9331 20.1296C19.8234 19.545 20.9926 20.1828 20.9926 21.2457V22.9598C20.9926 24.6473 19.6772 26.4543 18.096 26.9858L13.8574 28.3943C13.1133 28.6467 11.9042 28.6467 11.1734 28.3943L6.93471 26.9858C5.34024 26.4543 4.03809 24.6473 4.03809 22.9598V21.2324C4.03809 20.1828 5.20736 19.545 6.08432 20.1163L8.8215 21.8968C9.87121 22.601 11.1999 22.9465 12.5287 22.9465C13.8574 22.9465 15.1861 22.601 16.2358 21.8968L18.9331 20.1296Z" fill="#305FE6"/>
<path d="M23.1165 7.92944L15.1574 2.70755C13.7224 1.76415 11.3572 1.76415 9.92222 2.70755L1.92333 7.92944C-0.64111 9.59034 -0.64111 13.3506 1.92333 15.0248L4.04929 16.4067L9.92222 20.2334C11.3572 21.1768 13.7224 21.1768 15.1574 20.2334L20.9905 16.4067L22.8109 15.2109V19.2768C22.8109 19.8215 23.2626 20.2733 23.8074 20.2733C24.3522 20.2733 24.8039 19.8215 24.8039 19.2768V12.7394C25.3354 11.0254 24.7907 9.03228 23.1165 7.92944Z" fill="#305FE6"/>
<circle cx="20" cy="10" r="5.75" fill="white" stroke="#305FE6" stroke-width="0.5"/>
<path d="M16.672 10.948V9.114H23.686V10.948H16.672ZM19.178 13.454V6.608H21.166V13.454H19.178Z" fill="#305FE6"/>
</svg>
