<svg width="25" height="27" viewBox="0 0 25 27" fill="none" xmlns="http://www.w3.org/2000/svg">
<path d="M18.9331 18.1301C19.8234 17.5455 20.9926 18.1832 20.9926 19.2462V20.9603C20.9926 22.6478 19.6772 24.4548 18.096 24.9863L13.8574 26.3948C13.1133 26.6472 11.9042 26.6472 11.1734 26.3948L6.93471 24.9863C5.34024 24.4548 4.03809 22.6478 4.03809 20.9603V19.2329C4.03809 18.1832 5.20736 17.5455 6.08432 18.1168L8.8215 19.8973C9.87121 20.6015 11.1999 20.947 12.5287 20.947C13.8574 20.947 15.1861 20.6015 16.2358 19.8973L18.9331 18.1301Z" fill="#305FE6"/>
<path d="M23.1165 5.92944L15.1574 0.707546C13.7224 -0.235849 11.3572 -0.235849 9.92222 0.707546L1.92333 5.92944C-0.64111 7.59034 -0.64111 11.3506 1.92333 13.0248L4.04929 14.4067L9.92222 18.2334C11.3572 19.1768 13.7224 19.1768 15.1574 18.2334L20.9905 14.4067L22.8109 13.2109V17.2768C22.8109 17.8215 23.2626 18.2733 23.8074 18.2733C24.3522 18.2733 24.8039 17.8215 24.8039 17.2768V10.7394C25.3354 9.02537 24.7907 7.03228 23.1165 5.92944Z" fill="#305FE6"/>
</svg>
