<svg width="15" height="15" viewBox="0 0 15 15" fill="none" xmlns="http://www.w3.org/2000/svg">
<path d="M3.125 7.5H8.125H11.875M1.875 3.75H7.5H13.125M4.375 11.25H10.625" stroke="white" stroke-width="2" stroke-linecap="round" stroke-linejoin="round"/>
<circle cx="12" cy="3" r="2.9" fill="white" stroke="#305FE6" stroke-width="0.2"/>
<path d="M11.607 3.00001C11.607 2.77939 11.7829 2.60012 11.9997 2.60012C12.2165 2.60012 12.3924 2.77939 12.3924 3.00001C12.3924 3.22063 12.2165 3.39991 11.9997 3.39991C11.7829 3.39991 11.607 3.22063 11.607 3.00001Z" fill="#305FE6"/>
<path fill-rule="evenodd" clip-rule="evenodd" d="M11.4849 1H12.5144L12.558 1.22311L12.5581 1.22388L12.6298 1.57999C12.7321 1.62596 12.827 1.68288 12.9147 1.74731L13.2732 1.62513L13.4857 1.55802L13.5967 1.75195L13.8866 2.24641L14 2.44464L13.8311 2.59472L13.5622 2.82786C13.5706 2.8802 13.5785 2.93928 13.5785 2.99999C13.5785 3.06071 13.5706 3.1198 13.5622 3.17214L13.8323 3.40633L14 3.55536L13.8859 3.7548L13.5967 4.248L13.4857 4.44247L13.2705 4.37397L12.9147 4.25269C12.827 4.31712 12.7321 4.37403 12.6298 4.41999L12.5581 4.7761L12.558 4.77687L12.5144 5H11.4849L11.4417 4.77638L11.3697 4.42002C11.2674 4.37404 11.1726 4.31713 11.0848 4.25269L10.7266 4.37479L10.5136 4.44253L10.403 4.2479L10.1128 3.75336L10 3.55536L10.1684 3.40528L10.4374 3.17205C10.429 3.11986 10.421 3.06055 10.421 2.99999C10.421 2.93943 10.429 2.88013 10.4374 2.82795L10.1671 2.59354L10 2.44464L10.1137 2.24513L10.403 1.75204L10.5136 1.55796L10.729 1.62603L11.0848 1.74731C11.1726 1.68287 11.2674 1.62595 11.3697 1.57997L11.4417 1.22359L11.4849 1ZM11.9997 2.3333C11.6385 2.3333 11.3452 2.63185 11.3452 3.00001C11.3452 3.36816 11.6385 3.66674 11.9997 3.66674C12.3609 3.66674 12.6542 3.36816 12.6542 3.00001C12.6542 2.63185 12.3609 2.3333 11.9997 2.3333Z" fill="#305FE6"/>
</svg>
