<svg width="15" height="15" viewBox="0 0 15 15" fill="none" xmlns="http://www.w3.org/2000/svg">
<path d="M3.125 7.5H8.125H11.875M1.875 3.75H7.5H13.125M4.375 11.25H10.625" stroke="white" stroke-width="2" stroke-linecap="round" stroke-linejoin="round"/>
<circle cx="11" cy="4" r="3.9" fill="white" stroke="#305FE6" stroke-width="0.2"/>
<path d="M10.4106 4.00001C10.4106 3.66908 10.6744 3.40019 10.9996 3.40019C11.3248 3.40019 11.5886 3.66908 11.5886 4.00001C11.5886 4.33095 11.3248 4.59986 10.9996 4.59986C10.6744 4.59986 10.4106 4.33095 10.4106 4.00001Z" fill="#305FE6"/>
<path fill-rule="evenodd" clip-rule="evenodd" d="M10.2274 1H11.7715L11.8369 1.33467L11.8372 1.33581L11.9447 1.86999C12.0982 1.93895 12.2404 2.02432 12.372 2.12096L12.9098 1.93769L13.2285 1.83703L13.395 2.12792L13.8299 2.86961L14 3.16697L13.7466 3.39208L13.3433 3.7418C13.356 3.8203 13.3677 3.90891 13.3677 3.99999C13.3677 4.09107 13.356 4.17969 13.3433 4.2582L13.7484 4.6095L14 4.83304L13.8288 5.1322L13.3951 5.872L13.2285 6.1637L12.9057 6.06095L12.372 5.87904C12.2404 5.97567 12.0982 6.06104 11.9447 6.12999L11.8372 6.66416L11.8369 6.6653L11.7715 7H10.2274L10.1626 6.66457L10.0546 6.13002C9.90114 6.06106 9.75883 5.97569 9.62722 5.87904L9.08983 6.06218L8.77041 6.1638L8.60449 5.87184L8.16919 5.13005L8 4.83305L8.2526 4.60792L8.6561 4.25808C8.64348 4.17979 8.63155 4.09083 8.63155 3.99999C8.63155 3.90915 8.64348 3.8202 8.6561 3.74192L8.25058 3.3903L8.00001 3.16696L8.17048 2.8677L8.60455 2.12806L8.77041 1.83694L9.09357 1.93904L9.62722 2.12096C9.75883 2.02431 9.90113 1.93892 10.0546 1.86995L10.1626 1.33539L10.2274 1ZM10.9996 2.99994C10.4577 2.99994 10.0179 3.44778 10.0179 4.00001C10.0179 4.55224 10.4577 5.00011 10.9996 5.00011C11.5414 5.00011 11.9813 4.55224 11.9813 4.00001C11.9813 3.44778 11.5414 2.99994 10.9996 2.99994Z" fill="#305FE6"/>
</svg>
