<svg width="15" height="16" viewBox="0 0 15 16" fill="none" xmlns="http://www.w3.org/2000/svg">
<path d="M9.75326 11.8549C10.4032 11.4555 10.9396 10.9387 11.3312 10.2809C11.4447 10.0929 11.5348 9.89324 11.6248 9.69355C11.6718 9.58783 11.6483 9.56043 11.5348 9.56434C10.8809 9.56826 10.227 9.56434 9.57315 9.56434C8.98192 9.56434 8.39069 9.56043 7.80337 9.56826C7.69374 9.56826 7.66242 9.53693 7.66633 9.4273C7.67025 8.53067 7.67025 7.63012 7.66633 6.73349C7.66633 6.6356 7.68983 6.59645 7.79554 6.60036C10.1135 6.60428 12.4314 6.60428 14.7493 6.60036C14.8394 6.60036 14.8746 6.62386 14.8903 6.71783C14.9255 6.94492 14.9569 7.17202 14.9725 7.39911C14.9725 7.42652 14.9686 7.45784 14.9999 7.47742C14.9999 7.84938 14.9999 8.22135 14.9999 8.5894C14.9451 8.72644 14.9569 8.87131 14.9334 9.01618C14.7337 10.3983 14.2051 11.6395 13.3241 12.728C12.9874 13.143 12.6193 13.5228 12.1926 13.8439C12.1299 13.7969 12.0712 13.7499 12.0085 13.699C11.2568 13.0804 10.505 12.4696 9.75326 11.8549Z" fill="#518EF7"/>
<path d="M9.75318 11.855C10.5049 12.4697 11.2567 13.0805 12.0085 13.6952C12.0672 13.7461 12.1298 13.7931 12.1925 13.8401C12.1807 13.8557 12.169 13.8714 12.1533 13.8832C11.1157 14.6976 9.94504 15.2105 8.6412 15.4141C8.44543 15.4454 8.24574 15.4376 8.0578 15.5002C7.678 15.5002 7.29429 15.5002 6.9145 15.5002C6.74222 15.4376 6.55428 15.4454 6.37417 15.4141C3.95052 15.003 2.13376 13.7187 0.912146 11.5887C0.904315 11.577 0.9004 11.5613 0.896484 11.5496C1.70306 10.8918 2.50964 10.2301 3.31622 9.57227C3.59421 10.2614 3.9975 10.8604 4.55741 11.3538C5.96305 12.5832 7.99124 12.8103 9.6318 11.9137C9.67487 11.8941 9.71794 11.8745 9.75318 11.855Z" fill="#28B346"/>
<path d="M0.845703 4.56433C1.10804 4.01225 1.45651 3.51891 1.85588 3.06472C3.0031 1.76871 4.4244 0.930811 6.13153 0.629323C8.37115 0.233865 10.3954 0.746786 12.1926 2.14851C12.267 2.20724 12.2827 2.23465 12.1965 2.30513C11.4448 2.91202 10.7008 3.52674 9.95298 4.14146C9.89034 4.19236 9.84335 4.21194 9.76504 4.16495C7.3688 2.7554 4.28345 3.84389 3.31242 6.47506C3.30459 6.49855 3.29284 6.51813 3.2811 6.54162C3.01093 6.32627 2.74468 6.10701 2.47452 5.89166C1.93028 5.4453 1.38603 5.00677 0.845703 4.56433Z" fill="#F04336"/>
<path d="M0.845707 4.56445C1.38995 5.0069 1.93028 5.44934 2.47452 5.88787C2.74077 6.10713 3.01094 6.32248 3.2811 6.53783C3.15581 6.97244 3.05792 7.41097 3.04618 7.86907C3.03051 8.45639 3.13232 9.02021 3.32417 9.57228C2.51759 10.2301 1.71102 10.8918 0.904438 11.5496C0.520726 10.8683 0.270139 10.1361 0.129184 9.3726C-0.160558 7.75944 0.0430441 6.20893 0.755652 4.7289C0.779144 4.67017 0.814383 4.61927 0.845707 4.56445Z" fill="#FABA01"/>
</svg>
