<svg width="50" height="50" viewBox="0 0 50 50" fill="none" xmlns="http://www.w3.org/2000/svg">
<path fill-rule="evenodd" clip-rule="evenodd" d="M27.5 17.5C27.5 16.1193 26.3807 15 25 15C23.6193 15 22.5 16.1193 22.5 17.5V22.5H17.5C16.1193 22.5 15 23.6193 15 25C15 26.3807 16.1193 27.5 17.5 27.5H22.5V32.5C22.5 33.8807 23.6193 35 25 35C26.3807 35 27.5 33.8807 27.5 32.5V27.5H32.5C33.8807 27.5 35 26.3807 35 25C35 23.6193 33.8807 22.5 32.5 22.5H27.5V17.5ZM0 25C0 11.1929 11.1929 0 25 0C38.807 0 50 11.1929 50 25C50 38.807 38.807 50 25 50C11.1929 50 0 38.807 0 25Z" fill="#305FE6"/>
</svg>
