<svg width="369" height="54" viewBox="0 0 369 54" fill="none" xmlns="http://www.w3.org/2000/svg">
<path d="M183.911 53.7724C182.364 53.8304 180.818 54 179.271 54C119.536 54 59.7357 54 0 54C0 34.1434 0 37.2867 0 17.4301C6.25066 15.3399 12.308 12.8433 18.1076 9.65001C36.6018 -0.452486 56.3204 -2.31042 76.9411 3.49562C77.6499 3.6698 78.3588 3.78592 79.0032 3.90204C85.7049 6.45669 91.7623 10.1726 98.2707 13.0756C112.383 19.288 126.689 19.4622 140.865 13.1917C142.927 12.2047 145.118 11.2757 147.116 10.1145C158.329 3.61174 170.636 0.116121 183.911 0C183.975 25.5465 183.911 28.2258 183.911 53.7724Z" fill="#FDDA41"/>
<path d="M183.968 53.9741C185.524 54.0323 187.08 53.9741 188.636 53.9741C248.736 53.9741 308.9 53.9741 369 53.9741C369 34.0653 369 37.1565 369 17.2477C362.711 15.152 356.617 12.6489 350.782 9.44715C332.175 -0.681902 312.336 -2.54472 291.59 3.27658C290.877 3.45122 290.164 3.56764 289.515 3.68407C282.773 6.24543 276.679 9.97106 270.13 12.8817C255.932 19.1105 241.539 19.2851 227.276 12.9981C225.201 12.0085 222.997 11.0771 220.987 9.91285C209.707 3.393 197.324 0.116426 183.968 0C183.903 25.6137 183.968 28.3604 183.968 53.9741Z" fill="#FBBE29"/>
</svg>
