<svg width="64" height="64" viewBox="0 0 64 64" fill="none" xmlns="http://www.w3.org/2000/svg">
<mask id="mask0_260_1705" style="mask-type:alpha" maskUnits="userSpaceOnUse" x="3" y="6" width="59" height="54">
<path d="M55.3243 6.12891H9.67573C5.98862 6.12891 3 9.28662 3 13.1823V42.2173C3 46.1129 5.98862 49.2713 9.67573 49.2713H16.8135C18.5834 49.2713 20.2819 50.0143 21.5335 51.3367L27.7788 57.9336C30.3862 60.6887 34.6125 60.6887 37.22 57.9336L43.4659 51.3341C44.7174 50.0117 46.4153 49.2687 48.1858 49.2687H55.3243C59.0114 49.2687 62 46.1104 62 42.2147V13.1797C62 9.28662 59.0114 6.12891 55.3243 6.12891Z" fill="#F2F2F2"/>
</mask>
<g mask="url(#mask0_260_1705)">
<path d="M67.3021 -8.46143L-2.54688 -2.91371V61.8832H67.3021V-8.46143Z" fill="#16D3DC"/>
<path d="M32.4727 42.3756L76.0883 39.0302V0.978516L32.4727 4.32356V42.3756Z" fill="#18BECB"/>
<path d="M32.5068 67.4809C32.2135 67.4885 31.9196 67.5025 31.6263 67.5025C20.3224 67.5025 9.01837 67.5025 -2.28589 67.5025V38.9569C-1.09696 38.5194 0.0482221 37.9705 1.13447 37.3175C4.64332 35.1728 8.36709 34.7804 12.2735 36.0141C12.4 36.0546 12.5365 36.0724 12.668 36.1009C13.9366 36.6442 15.0776 37.4322 16.3083 38.0408C18.9777 39.3607 21.6812 39.3962 24.3715 38.0636C24.7672 37.8487 25.1781 37.6592 25.5555 37.4151C27.6213 36.0586 30.0357 35.3338 32.5049 35.3288C32.5055 40.7243 32.5062 62.0822 32.5068 67.4809Z" fill="#FDDA41"/>
<path d="M32.4563 67.4811C32.7496 67.4888 33.0435 67.5027 33.3368 67.5027C44.6411 67.5027 55.9451 67.5027 67.249 67.5027V38.9571C66.06 38.5196 64.9149 37.9707 63.8286 37.3177C60.3191 35.173 56.596 34.7819 52.6896 36.0111C52.5631 36.0517 52.4266 36.0694 52.2951 36.098C51.0265 36.6413 49.8855 37.4293 48.6542 38.0379C45.9854 39.3578 43.2812 39.3933 40.5916 38.0607C40.1959 37.8458 39.785 37.6562 39.4076 37.4122C37.3413 36.0553 34.9261 35.3305 32.4563 35.3258C32.4563 40.7246 32.4563 62.0824 32.4563 67.4811Z" fill="#FBBE29"/>
<path d="M32.4856 8.72994L31.7676 8.53595L29.5849 7.94194C27.9885 7.51913 26.3177 7.46281 24.6966 7.77717C23.0756 8.09153 21.5461 8.76847 20.222 9.75762C18.8978 10.7468 17.8132 12.0227 17.0487 13.4904C16.2842 14.958 15.8596 16.5797 15.8065 18.2348C15.7533 19.8898 16.073 21.5355 16.7417 23.0495C17.4104 24.5635 18.411 25.9068 19.6689 26.9793C20.9268 28.0519 22.4097 28.8261 24.0072 29.2445C25.6047 29.6628 27.2757 29.7144 28.8959 29.3955L29.1272 29.3499C29.1409 29.3473 29.1538 29.3444 29.1668 29.3415C29.1923 29.3357 29.2178 29.33 29.248 29.3271L29.3813 29.3112L29.516 29.2947C29.5324 29.2931 29.5482 29.2908 29.5641 29.2885C29.593 29.2844 29.622 29.2801 29.6551 29.2801L29.9528 29.2624C30.0409 29.2546 30.1359 29.2541 30.2308 29.2537C30.2435 29.2536 30.2562 29.2536 30.2688 29.2535C30.3162 29.2532 30.3634 29.2525 30.4109 29.2517C30.4712 29.2507 30.5319 29.2497 30.5937 29.2497L30.9351 29.2598L31.107 29.2643L31.2853 29.2757C32.3111 29.3418 33.3323 29.4662 34.3441 29.6485C35.4161 29.8355 36.5242 30.0745 37.643 30.3566C38.7619 30.6387 39.8997 30.9582 41.0375 31.3075C43.3169 32.0074 45.6152 32.8201 47.8997 33.7248C50.1841 34.6294 52.461 35.6171 54.712 36.6834C56.9629 37.7497 59.1905 38.8953 61.3769 40.1175C61.5823 40.2323 61.7873 40.3479 61.992 40.4642V29.3066C61.5956 28.9025 61.1963 28.5006 60.7941 28.101C58.87 26.189 56.8769 24.3366 54.8055 22.533C52.7341 20.7294 50.5855 18.9873 48.3245 17.306C47.193 16.4661 46.0331 15.6432 44.8295 14.8406C43.626 14.038 42.3826 13.2532 41.0697 12.5013C39.7568 11.7495 38.3782 11.0242 36.8719 10.3459L36.5899 10.2191L36.2992 10.0955L35.7145 9.84823C35.5522 9.78264 35.3867 9.7183 35.2208 9.65386C35.1831 9.63921 35.1454 9.62455 35.1076 9.60987C35.0805 9.5993 35.0534 9.58872 35.0263 9.57815C34.8504 9.50942 34.6748 9.44086 34.4869 9.37657L33.8472 9.15089C33.7735 9.12417 33.6942 9.09902 33.615 9.07389C33.5814 9.06324 33.5478 9.0526 33.5147 9.04185L33.1778 8.93534L32.839 8.83011C32.7663 8.80622 32.6886 8.78528 32.6108 8.76432C32.5688 8.75302 32.5268 8.74172 32.4856 8.72994Z" fill="url(#paint0_linear_260_1705)"/>
</g>
<path fill-rule="evenodd" clip-rule="evenodd" d="M38.3806 11.2148C34.66 4.25337 26.5361 1.98255 19.4786 5.93461C19.4786 5.93462 19.4786 5.93463 19.4786 5.93464C12.8118 9.92475 10.6153 17.6932 14.2221 24.3224C17.2183 29.8339 25.047 33.772 32.174 29.8916C39.435 26.2971 42.1208 18.2142 38.3806 11.2148ZM29.175 27.7539C27.9513 27.0254 26.8329 26.2222 25.8229 25.3506C26.8329 26.2223 27.9513 27.0256 29.175 27.7539Z" fill="#9AEF4F"/>
<path d="M19.4787 5.93457C17.6797 15.5326 21.523 23.6218 30.078 28.2674C30.858 28.6909 31.7765 28.9603 32.174 29.8916C25.047 33.772 17.2183 29.8339 14.2221 24.3224C10.6153 17.6931 12.8118 9.92467 19.4787 5.93457Z" fill="#87D93F"/>
<defs>
<linearGradient id="paint0_linear_260_1705" x1="15.796" y1="31.0197" x2="78.6879" y2="31.0197" gradientUnits="userSpaceOnUse">
<stop offset="0.2" stop-color="white"/>
<stop offset="1" stop-color="white" stop-opacity="0"/>
</linearGradient>
</defs>
</svg>
