<svg width="95" height="81" viewBox="0 0 95 81" fill="none" xmlns="http://www.w3.org/2000/svg">
<g clip-path="url(#clip0_2565_3063)">
<path d="M73 38V8H23V38H73Z" fill="#FCE480"/>
<path d="M23.5 41V37.5H73V41H23.5Z" fill="#FCBF64"/>
<path d="M81 8V6H15V8H81Z" fill="white"/>
<path d="M11.4495 2.3899L12 2.5L10.9743 3.86754C10.6602 4.28644 10.4156 4.75325 10.25 5.25C10.0844 5.74675 10 6.26695 10 6.79057V53H7.5V6.29057C7.5 5.76695 7.58442 5.24675 7.75 4.75L7.83812 4.48565C7.94534 4.16399 8.10371 3.86171 8.30715 3.59047C9.03605 2.61861 10.2582 2.15165 11.4495 2.3899Z" fill="white"/>
<path d="M86.5634 1.31269L87.5 1.5L86.4743 2.86754C86.1602 3.28644 85.9156 3.75325 85.75 4.25C85.5844 4.74675 85.5 5.26695 85.5 5.79057V53H83V4.5V4.23402C83 3.44389 83.3139 2.68612 83.8726 2.12742C84.5769 1.42307 85.5867 1.11734 86.5634 1.31269Z" fill="white"/>
<path d="M81 8H75V41H81V8Z" fill="#16D3DC"/>
<path d="M22 8H15V41H22V8Z" fill="#16D3DC"/>
<path d="M3.5 59V74.0123C3.5 74.3246 3.62405 74.6241 3.84486 74.8449L4.45306 75.4531C4.72213 75.7221 5.17574 75.6485 5.34591 75.3082C5.44035 75.1193 5.63339 75 5.84455 75H6.5H78.5H80.5C81.4815 75 82.4446 74.7332 83.2862 74.2283L83.7308 73.9615C84.2417 73.655 84.713 73.287 85.1343 72.8657L86 72L87.0177 70.9823C87.6658 70.3342 88.1755 69.5612 88.5159 68.7102C88.8357 67.9107 89 67.0576 89 66.1966V65.5V64.8565C89 64.2876 89.0698 63.721 89.2077 63.1691C89.4011 62.3955 89.7261 61.6608 90.1685 60.9973L90.5 60.5L91.5 58.5L91.8838 57.7325C91.9608 57.5785 92.062 57.4379 92.1838 57.3162L92.3547 57.1453C92.7401 56.7599 92.8333 56.1665 92.5895 55.6791C92.5306 55.5611 92.4525 55.4525 92.3593 55.3593C92.1292 55.1292 91.8172 55 91.4919 55H91.363C91.1243 55 90.8888 55.0556 90.6753 55.1623L90.2314 55.3843C90.0773 55.4613 89.918 55.5273 89.7546 55.5818L88.7454 55.9182C88.582 55.9727 88.4227 56.0387 88.2686 56.1157C87.7632 56.3684 87.2058 56.5 86.6407 56.5H6.5H5.46353C5.1587 56.5 4.85806 56.571 4.58541 56.7073C4.20541 56.8973 3.89729 57.2054 3.70729 57.5854C3.57097 57.8581 3.5 58.1587 3.5 58.4635V59Z" fill="#FCE480"/>
<path d="M79.6299 74.9942L7.30274 74.512C6.12787 74.5042 4.97757 74.8483 4 75.5L7 77.5L7.31084 77.6554C8.42168 78.2108 9.64658 78.5 10.8885 78.5H11.5H80.5H83.3379C83.7785 78.5 84.2184 78.4636 84.6531 78.3912L84.8602 78.3566C86.2614 78.1231 87.5752 77.5207 88.6665 76.6112L89.2821 76.0982C89.7591 75.7008 90.1882 75.2491 90.5607 74.7524L91.1292 73.9944C91.3759 73.6655 91.5925 73.315 91.7764 72.9472C92.2523 71.9955 92.5 70.946 92.5 69.882V69.5V66V61V56.5L91 58.5L90.5943 59.1086C90.1999 59.7002 89.8861 60.3418 89.6612 61.0164L89.5 61.5L89.4105 61.7684C89.1386 62.5841 89 63.4384 89 64.2982V64.5V65.6435C89 66.2124 88.9302 66.779 88.7923 67.3309C88.5989 68.1045 88.2739 68.8392 87.8315 69.5027L87.5 70L86.6857 71.0857C86.2309 71.6922 85.6922 72.2309 85.0857 72.6857L84 73.5L83.4914 73.8391C82.8353 74.2764 82.109 74.5977 81.3441 74.789C80.7836 74.9291 80.2077 74.9981 79.6299 74.9942Z" fill="#FCBF64"/>
<path d="M3.5 58V74.5L2.5 72.5L2 71.5V58.5V56L2.5 55H4H89H91.5L89 56L88.8944 56.0528C88.3062 56.3469 87.6576 56.5 87 56.5H6.5H5L4 57L3.5 58Z" fill="white"/>
<path d="M9.5 5.25899V53.5H13V29L13.4804 6.89957C13.4934 6.30253 13.4266 5.70643 13.2818 5.12708C13.0953 4.38125 12.782 3.67302 12.3556 3.03335L12 2.5L11.1826 2.90872C10.4254 3.28731 9.8496 3.95119 9.5819 4.7543C9.52765 4.91704 9.5 5.08745 9.5 5.25899Z" fill="#305FE6"/>
<path d="M84.5 4.75899V53H88V28.5L88.4804 6.39957C88.4934 5.80253 88.4266 5.20643 88.2818 4.62708C88.0953 3.88125 87.782 3.17302 87.3556 2.53335L87 2L86.1826 2.40872C85.4254 2.78731 84.8496 3.45119 84.5819 4.2543C84.5277 4.41704 84.5 4.58745 84.5 4.75899Z" fill="#305FE6"/>
<path d="M82 5.5V4.69824C82 2.76525 83.567 1.19824 85.5 1.19824V1.19824C87.433 1.19824 89 2.76524 89 4.69824V53.5V54M82 5.5V42M82 5.5H74M14 5.5V5C14 3.067 12.433 1.5 10.5 1.5V1.5C8.567 1.5 7 3.067 7 5V42V54M14 5.5V42M14 5.5H22.5M7 54H3.56066C2.88153 54 2.23022 54.2698 1.75 54.75V54.75C1.26978 55.2302 1 55.8815 1 56.5607V69.9593C1 70.9771 1.1942 71.9855 1.57219 72.9305L1.60704 73.0176C1.86788 73.6697 2.21345 74.2846 2.63485 74.8465L2.93933 75.2524C3.31185 75.7491 3.74091 76.2008 4.21786 76.5982L5.09416 77.3285C6.01944 78.0995 7.10687 78.6517 8.27535 78.9438L9.54456 79.2611C10.1791 79.4198 10.8308 79.5 11.4848 79.5H83.3023C84.4216 79.5 85.5285 79.2651 86.5514 78.8105L87.8501 78.2333C88.9364 77.7505 89.9014 77.0317 90.675 76.1291L91.4801 75.1898C92.1536 74.4041 92.6683 73.4951 92.9956 72.5133L93.0895 72.2316C93.3614 71.4159 93.5 70.5616 93.5 69.7018V56.5607C93.5 55.8815 93.2302 55.2302 92.75 54.75V54.75C92.2698 54.2698 91.6185 54 90.9393 54H89M7 54H14M89 54H82M82 54V42M82 54H14M82 42H74M14 42V54M14 42H22.5M74 5.5V42M74 5.5H22.5M74 42H22.5M22.5 5.5V42M26 18H69.5M56.5 29H69.5M61 12V35.5M48 12V23M35.5 12V25" stroke="#0F36A8" stroke-width="2"/>
<path d="M13.3867 27.775C19.6494 22.4241 27.9845 23.996 32.9829 29.8395C37.9813 23.996 46.2087 22.4804 52.579 27.775C58.9493 33.0697 59.7233 42.0724 54.8053 48.401C51.3959 52.7881 42.2265 61.2321 36.9214 66L31 64L28 63L27.7415 62.9138L27.7217 62.9073C26.9123 62.6386 26.0651 62.5011 25.2122 62.5L25.1913 62.5C20.07 57.7956 13.8384 51.8469 11.1605 48.401C6.24242 42.0724 7.12411 33.126 13.3867 27.775Z" fill="#F0A9A9" stroke="#FF7C7C" stroke-linecap="round" stroke-linejoin="round"/>
<path d="M14.6319 28.8707L13.0736 30.4623C12.9306 30.6371 12.9451 30.8922 13.1069 31.0498L13.166 31.1073C13.3705 31.3064 13.6967 31.3057 13.9003 31.1056L14.8394 30.183L15.3914 29.6725C15.7246 29.3644 16.0834 29.0852 16.4639 28.8379L17.5333 28.1429L17.7107 28.0276C17.9185 27.8926 17.9854 27.6192 17.8634 27.4035C17.7479 27.1991 17.4989 27.1116 17.2809 27.1989L16.785 27.3974L16.7604 27.4094C16.2418 27.6648 15.7523 27.9756 15.3007 28.3364L14.6319 28.8707Z" fill="white"/>
<path d="M8.30707 67.1929L7.85355 67.6464C7.62718 67.8728 7.5 68.1799 7.5 68.5V68.7419C7.5 68.9072 7.56564 69.0656 7.68248 69.1825C7.8721 69.3721 8.16178 69.4191 8.40164 69.2992L8.81623 69.0919C8.93795 69.031 9.04906 68.9509 9.14528 68.8547L9.5 68.5L9.70943 68.2906C10.2331 67.7669 10.8377 67.3312 11.5 67L13.5 66L14.9915 65.2543C15.3301 65.085 15.6802 64.9399 16.0394 64.8202L17 64.5L18.0446 64.2389C18.6791 64.0802 19.3308 64 19.9848 64H20.5H22.5H23.7018C24.5616 64 25.4159 64.1386 26.2316 64.4105L26.5 64.5L28.3657 64.8731C28.7879 64.9576 29.2026 65.076 29.6057 65.2271L33 66.5L37 68L41 69L42.0446 69.2611C42.6791 69.4198 43.3307 69.5 43.9848 69.5H45.4315C45.81 69.5 46.1881 69.4731 46.5628 69.4196L49.5 69L51.2251 68.5687C51.405 68.5238 51.5693 68.4307 51.7004 68.2996L51.8232 68.1768C51.9364 68.0636 52 67.9101 52 67.75C52 67.5899 51.9364 67.4364 51.8232 67.3232L51.75 67.25C51.5899 67.0899 51.3728 67 51.1464 67H51.1146C51.0385 67 50.9627 67.0093 50.8889 67.0278L49 67.5L46.0435 67.9224C45.6816 67.9741 45.3165 68 44.951 68C44.3194 68 43.6902 67.9225 43.0774 67.7693L42 67.5L40 67L38 66.5L35 65.5L30.5 64L27 63L25.9554 62.7389C25.3209 62.5802 24.6692 62.5 24.0152 62.5H22.5H21H19.9848C19.3308 62.5 18.6791 62.5802 18.0446 62.7389L17 63L15.5 63.5L14.5394 63.8202C14.1802 63.9399 13.8301 64.085 13.4915 64.2543L12 65L10 66L8.72702 66.8487C8.57604 66.9493 8.43538 67.0646 8.30707 67.1929Z" fill="#FCBF64"/>
</g>
<defs>
<clipPath id="clip0_2565_3063">
<rect width="95" height="81" fill="white"/>
</clipPath>
</defs>
</svg>
