<svg width="90" height="87" viewBox="0 0 90 87" fill="none" xmlns="http://www.w3.org/2000/svg">
<g clip-path="url(#clip0_2565_3065)">
<path d="M70.6657 80.9802L58 65.5L56 62.5L65.5 52.5L76.5 61.5L82 66L84.4845 68.1739C85.4793 69.0444 86.2429 70.1478 86.7071 71.3855L86.9906 72.1417C87.3275 73.0399 87.5 73.9914 87.5 74.9507V75.6115C87.5 76.8534 87.2108 78.0783 86.6554 79.1892L86.379 79.742C86.127 80.2459 85.8225 80.7218 85.4706 81.1618L85.2526 81.4343C84.4303 82.4622 83.367 83.2713 82.157 83.7899L82.0093 83.8532C81.0135 84.2799 79.9414 84.5 78.8579 84.5H77.7944C76.295 84.5 74.8258 84.0786 73.5544 83.284L72.6173 82.6983C71.8774 82.2359 71.2182 81.6555 70.6657 80.9802Z" fill="#16D3DC" stroke="#0F36A8" stroke-width="5"/>
<mask id="mask0_2565_3065" style="mask-type:alpha" maskUnits="userSpaceOnUse" x="0" y="0" width="72" height="71">
<circle cx="36" cy="35.5" r="35.5" fill="#F9AB02"/>
</mask>
<g mask="url(#mask0_2565_3065)">
<rect x="37.5" y="-5" width="42" height="78" fill="#DEDEDE"/>
</g>
<mask id="mask1_2565_3065" style="mask-type:alpha" maskUnits="userSpaceOnUse" x="5" y="0" width="72" height="71">
<circle cx="41" cy="35.5" r="35.5" transform="rotate(180 41 35.5)" fill="#F9AB02"/>
</mask>
<g mask="url(#mask1_2565_3065)">
<rect x="39.5" y="76" width="42" height="78" transform="rotate(180 39.5 76)" fill="#F3F3F3"/>
</g>
<circle cx="38.5" cy="35.5" r="33" stroke="#0F36A8" stroke-width="5"/>
<path d="M40.5 22.5963V35H53.0396C53.6658 35 54.278 35.1854 54.7991 35.5327L55.0075 35.6717C55.3302 35.8868 55.5912 36.1825 55.7647 36.5294C55.9194 36.8389 56 37.1801 56 37.5261V37.9739C56 38.3199 55.9194 38.6611 55.7647 38.9706C55.5912 39.3175 55.3302 39.6132 55.0075 39.8283L54.7991 39.9673C54.278 40.3146 53.6658 40.5 53.0396 40.5H38.2906C37.4528 40.5 36.6377 40.2283 35.9675 39.7257L35.8325 39.6243C35.2904 39.2178 34.8852 38.6556 34.6709 38.0128C34.5577 37.6732 34.5 37.3175 34.5 36.9594V22.9577C34.5 22.331 34.6703 21.7161 34.9928 21.1787L35.1799 20.8668C35.6887 20.0188 36.6051 19.5 37.594 19.5C38.7451 19.5 39.7803 20.2009 40.2079 21.2697L40.2785 21.4464C40.4248 21.8121 40.5 22.2024 40.5 22.5963Z" fill="#0F36A8"/>
</g>
<defs>
<clipPath id="clip0_2565_3065">
<rect width="89.5" height="87" fill="white" transform="translate(0.5)"/>
</clipPath>
</defs>
</svg>
