<svg width="25" height="25" viewBox="0 0 25 25" fill="none" xmlns="http://www.w3.org/2000/svg">
<g clip-path="url(#clip0_2293_5804)">
<path d="M10.3109 16.1247C10.6004 15.855 10.8193 15.5023 10.9143 15.0585L11.4303 12.6503C12.0451 13.1867 12.9674 13.5523 14.3675 13.5523C15.0018 13.5523 15.5158 13.0381 15.5158 12.404C15.5158 11.7699 15.0018 11.2558 14.3675 11.2558C12.6061 11.2558 12.5557 10.613 12.4343 9.0605C12.4123 8.77884 12.3895 8.48772 12.3492 8.20359C12.3416 8.15009 12.329 8.09866 12.3148 8.04825C12.2173 7.13948 11.4999 6.39182 10.7505 6.02868C10.7505 6.02868 10.4654 5.87211 10.1399 5.80998C9.82841 5.75052 9.46753 5.74846 9.46753 5.74846L9.45889 5.74805C9.1402 5.75731 8.80381 5.81903 8.48408 5.93548C8.38841 5.94885 8.29274 5.97334 8.19954 6.01222C8.06581 6.06798 4.89552 7.40489 2.55479 9.50923C2.08322 9.93327 2.04475 10.6591 2.46879 11.1307C2.69551 11.3829 3.00845 11.5113 3.32282 11.5113C3.59626 11.5113 3.87072 11.4142 4.09004 11.2169C4.8589 10.5256 5.75182 9.91969 6.56821 9.43187L5.60616 13.9216C5.4607 14.6007 5.67405 15.2229 6.07792 15.7144C5.88946 17.5375 5.59175 19.6256 5.41605 20.056C5.22574 20.4414 3.9954 21.6201 2.78275 22.578C2.19494 23.0428 2.09454 23.896 2.55911 24.4842C2.82698 24.8231 3.22386 25.0002 3.62506 25.0002C3.91948 25.0002 4.21575 24.905 4.4649 24.7083C5.34404 24.0141 7.44117 22.2725 7.92261 21.0962C8.14872 20.5442 8.3522 19.3785 8.51021 18.2377L12.5391 23.4942C12.8063 23.8429 13.2094 24.0258 13.6172 24.0258C13.905 24.0258 14.1957 23.9347 14.4416 23.746C15.0368 23.2901 15.1491 22.4383 14.6936 21.8433L10.3109 16.1247Z" fill="black"/>
<path d="M11.4089 5.91551C13.0425 5.91551 14.3667 4.59128 14.3667 2.95776C14.3667 1.32423 13.0425 0 11.4089 0C9.7754 0 8.45117 1.32423 8.45117 2.95776C8.45117 4.59128 9.7754 5.91551 11.4089 5.91551Z" fill="black"/>
<path d="M20.4494 15.7598C19.1392 15.7598 18.0732 16.8263 18.0732 18.1363C18.0732 19.4463 19.1392 20.5124 20.4494 20.5124C21.7593 20.5124 22.8257 19.4463 22.8257 18.1363C22.8257 16.8263 21.7593 15.7598 20.4494 15.7598Z" fill="black"/>
</g>
<defs>
<clipPath id="clip0_2293_5804">
<rect width="25" height="25" fill="white"/>
</clipPath>
</defs>
</svg>
