<svg width="25" height="25" viewBox="0 0 25 25" fill="none" xmlns="http://www.w3.org/2000/svg">
<g clip-path="url(#clip0_2293_5799)">
<path d="M12.1257 7.7329C12.3915 7.7329 12.6534 7.68558 12.9046 7.59226C13.4649 7.38428 13.9108 6.97029 14.16 6.42667C14.4091 5.88327 14.4316 5.27538 14.2233 4.71481C13.8992 3.84193 13.056 3.25562 12.125 3.25562C11.8594 3.25562 11.5972 3.30293 11.3461 3.39625C10.1893 3.82609 9.59772 5.11691 10.0273 6.27371C10.3515 7.14636 11.1949 7.7329 12.1257 7.7329Z" fill="black"/>
<path d="M18.8545 0.0746104C18.6881 0.0250902 18.5156 0 18.3419 0C17.4589 0 16.651 0.642882 16.377 1.56352C16.0768 2.57263 16.4998 3.61145 17.3311 4.03865L17.1682 4.58601C16.8856 4.57391 16.5907 4.73193 16.4676 4.98547L15.0806 7.84312C15.0065 7.99608 14.7857 8.15895 14.6178 8.1847L13.2739 8.39202L10.5292 8.59605C10.3087 8.61233 10.0934 8.738 9.94749 8.9143C9.92438 8.93344 9.89929 8.95017 9.87816 8.97152L5.59411 13.3308C5.42949 13.4983 5.34057 13.7202 5.34365 13.9552C5.34673 14.1903 5.44159 14.4097 5.6104 14.5728L5.72969 14.6879C5.89366 14.8462 6.10978 14.9333 6.33824 14.9333C6.57703 14.9333 6.80835 14.8345 6.97254 14.6624L8.93662 12.6034L8.22044 15.4562C8.20702 15.4816 8.19425 15.5075 8.18325 15.5355L7.07268 18.3291C6.97892 18.5648 6.68906 18.8522 6.45268 18.9442L3.31112 20.1644C2.93323 20.3112 2.63721 20.7435 2.63721 21.1491V21.527C2.63721 21.8954 2.88767 22.163 3.23255 22.163C3.31046 22.163 3.39035 22.1492 3.46981 22.1217L7.95105 20.5848C8.30826 20.4624 8.6976 20.0918 8.83758 19.7412L9.88124 17.1274L10.2314 17.0847L9.03214 23.6865C8.92385 24.2829 9.32045 24.8587 9.91668 24.9701L9.97896 24.9815C10.0454 24.9941 10.113 25.0002 10.1803 25.0002C10.7103 25.0002 11.1657 24.6225 11.2632 24.1018L12.7831 15.9906C12.7866 15.9724 12.7853 15.9548 12.7877 15.9367L13.9558 9.92099L15.7766 9.66546C16.0961 9.62057 16.43 9.36196 16.5533 9.06352L18.0061 5.54538C18.0743 5.3801 18.0717 5.20116 17.9986 5.0416C17.9528 4.94168 17.8811 4.86046 17.7939 4.79796L17.964 4.22616C18.0265 4.23277 18.0888 4.23981 18.1518 4.23981C19.0343 4.23981 19.8421 3.59693 20.1156 2.67651C20.4508 1.54855 19.885 0.381416 18.8545 0.0746104Z" fill="black"/>
<path d="M21.5202 0.611328C21.0558 0.611328 20.6777 0.989222 20.6777 1.45361C20.6777 1.918 21.0556 2.2959 21.5202 2.2959C21.9848 2.2959 22.3625 1.918 22.3625 1.45361C22.3625 0.989222 21.9848 0.611328 21.5202 0.611328Z" fill="black"/>
</g>
<defs>
<clipPath id="clip0_2293_5799">
<rect width="25" height="25" fill="white"/>
</clipPath>
</defs>
</svg>
