<svg width="25" height="25" viewBox="0 0 25 25" fill="none" xmlns="http://www.w3.org/2000/svg">
<g clip-path="url(#clip0_2293_5796)">
<path d="M23.0995 7.44365C23.0995 8.68826 22.0905 9.69723 20.8459 9.69723C19.6013 9.69723 18.5924 8.68826 18.5924 7.44365C18.5924 6.19903 19.6013 5.19007 20.8459 5.19007C22.0905 5.19007 23.0995 6.19903 23.0995 7.44365ZM19.3067 12.1753L11.2939 7.25835C11.2521 7.23268 11.2094 7.20982 11.1662 7.18915C10.9531 7.03017 10.7055 6.91035 10.4311 6.84278C9.33273 6.57272 8.22269 7.24397 7.95217 8.34271L6.46462 14.3879C6.34935 14.7697 6.36783 15.3809 6.36865 15.3953C6.50979 17.9174 5.38873 20.3295 3.3698 21.8477L2.44587 22.5425C1.84301 22.9959 1.72181 23.8522 2.17517 24.455C2.44351 24.812 2.85307 25 3.26782 25C3.55354 25 3.84173 24.9107 4.08766 24.7257L5.01159 24.0308C7.03325 22.5106 8.39269 20.3318 8.89512 17.9196C10.8735 19.6193 12.4642 21.7395 13.5373 24.1281C13.7648 24.6345 14.2627 24.9345 14.7839 24.9345C14.971 24.9345 15.1612 24.8958 15.3428 24.8143C16.0309 24.5051 16.3381 23.6968 16.029 23.0087C14.737 20.1327 12.7957 17.5926 10.3727 15.5911C10.3998 15.5183 10.4244 15.4441 10.4433 15.3669L11.6032 10.6532L17.8779 14.5035C18.1007 14.6403 18.3473 14.7054 18.5909 14.7054C19.0502 14.7054 19.4986 14.4738 19.7564 14.0538C20.1509 13.4108 19.9496 12.5698 19.3067 12.1753ZM10.9847 5.79776C12.5857 5.79776 13.8836 4.49988 13.8836 2.89888C13.8836 1.29788 12.5857 0 10.9847 0C9.38372 0 8.08584 1.29788 8.08584 2.89888C8.08584 4.49988 9.38372 5.79776 10.9847 5.79776Z" fill="black"/>
</g>
<defs>
<clipPath id="clip0_2293_5796">
<rect width="25" height="25" fill="white"/>
</clipPath>
</defs>
</svg>
