<svg width="28" height="28" viewBox="0 0 28 28" fill="none" xmlns="http://www.w3.org/2000/svg">
<rect x="0.5" y="0.5" width="27" height="27" rx="5.5" stroke="#16D3DC"/>
<path d="M6.66683 20.9961C5.37824 20.9961 4.3335 22.0403 4.3335 23.3291V24.9939H11.6668V23.3291C11.6668 22.0403 10.6221 20.9961 9.3335 20.9961H6.66683Z" fill="#305FE6"/>
<circle cx="8" cy="18.5" r="2" fill="#305FE6"/>
<path d="M18.6668 20.9961C17.3782 20.9961 16.3335 22.0403 16.3335 23.3291V24.9939H23.6668V23.3291C23.6668 22.0403 22.6221 20.9961 21.3335 20.9961H18.6668Z" fill="#305FE6"/>
<circle cx="20" cy="18.5" r="2" fill="#305FE6"/>
<path d="M18.6668 8.99609C17.3782 8.99609 16.3335 10.0403 16.3335 11.3291V12.9939H23.6668V11.3291C23.6668 10.0403 22.6221 8.99609 21.3335 8.99609H18.6668Z" fill="#305FE6"/>
<circle cx="20" cy="6.5" r="2" fill="#305FE6"/>
<path d="M6.66683 8.99609C5.37824 8.99609 4.3335 10.0403 4.3335 11.3291V12.9939H11.6668V11.3291C11.6668 10.0403 10.6221 8.99609 9.3335 8.99609H6.66683Z" fill="#305FE6"/>
<circle cx="8" cy="6.5" r="2" fill="#305FE6"/>
</svg>
