<svg width="16" height="15" viewBox="0 0 16 15" fill="none" xmlns="http://www.w3.org/2000/svg">
<path d="M5.5 0C3.56717 0 2 1.56567 2 3.49804C2 5.43041 3.56717 6.99609 5.5 6.99609C7.43283 6.99609 9 5.43041 9 3.49804C9 1.56567 7.43283 0 5.5 0Z" fill="#305FE6"/>
<path d="M7.5 8.99414L3.5 8.99414C1.56711 8.99414 0 10.5605 0 12.4936V14.9909L11 14.9909V12.4936C11 10.5605 9.43288 8.99414 7.5 8.99414Z" fill="#305FE6"/>
<path d="M12.2364 4.52713H11.1928C10.7753 4.52713 10.5665 4.52713 10.407 4.60839C10.2668 4.67986 10.1527 4.7939 10.0813 4.93417C10 5.09364 10 5.30239 10 5.7199V7.80724C10 8.22474 10 8.4335 10.0813 8.59296C10.1527 8.73323 10.2668 8.84728 10.407 8.91875C10.5665 9 10.7753 9 11.1928 9H13.2801C13.6976 9 13.9064 9 14.0658 8.91875C14.2061 8.84728 14.3201 8.73323 14.3916 8.59296C14.4729 8.4335 14.4729 8.22474 14.4729 7.80724V6.76357M11.4909 7.50904H11.9071C12.0286 7.50904 12.0894 7.50904 12.1466 7.49531C12.1973 7.48314 12.2458 7.46306 12.2902 7.43581C12.3404 7.40507 12.3834 7.3621 12.4693 7.27614L14.8456 4.89987C15.0515 4.69401 15.0515 4.36025 14.8456 4.15439C14.6397 3.94854 14.306 3.94854 14.1001 4.15439L11.7239 6.53066C11.6379 6.61662 11.5949 6.6596 11.5642 6.70975C11.5369 6.75422 11.5169 6.8027 11.5047 6.85341C11.4909 6.9106 11.4909 6.97138 11.4909 7.09294V7.50904Z" stroke="#305FE6" stroke-width="0.8" stroke-linecap="round" stroke-linejoin="round"/>
</svg>
